<svg width="70" height="70" viewBox="0 0 70 70" fill="none" xmlns="http://www.w3.org/2000/svg">
<circle cx="35" cy="35" r="35" fill="#AD5E5E"/>
<path d="M13.732 31.0261C20.721 29.8361 27.8691 30.0087 34.9388 30.0087C37.216 30.0087 39.2564 30.2416 40.9237 31.8739C43.4913 34.3877 43.868 36.8419 43.868 40.3333C43.868 42.1157 44.595 45.8695 42.6364 46.9652C39.5718 48.6797 36.7494 49 33.1299 49C29.0887 49 25.0474 49 21.0062 49C18.6951 49 16.4992 48.9227 14.4247 47.9072C13.0462 47.2324 12.3464 45.999 12.3464 44.5725C12.3464 42.9314 12 41.3452 12 39.7681C12 38.3802 12 36.9923 12 35.6044C12 34.4026 12.6928 33.8278 12.6928 32.7218" stroke="#E2C09B" stroke-width="4" stroke-linecap="round"/>
<path d="M14 48.326C14 49.3546 13.8468 53.4867 12.9766 50.8402C12.5388 49.5087 12.2943 48.2172 12.2943 46.8285C12.2943 46.427 11.8903 45.6922 12.029 45.9966C12.4067 46.8256 12.8411 48.1005 12.9576 49.01C13.0784 49.9527 12.8821 52.6883 13.3177 51.8385C13.8499 50.8003 13.3177 48.3562 13.3177 47.1613C13.3177 46.1075 13.3177 45.0538 13.3177 44" stroke="#E2C09B" stroke-width="4" stroke-linecap="round"/>
<path d="M28.0156 20.9032C28.0156 24.2628 28.0156 27.6225 28.0156 30.9822C28.0156 32.2569 27.57 34.6207 28.3729 35.5992C30.0932 37.6959 33.4795 36.8173 35.9521 36.8173C39.0113 36.8173 42.0706 36.8173 45.1298 36.8173C48.5402 36.8173 51.9505 36.8173 55.3608 36.8173C59.0237 36.8173 57.8057 29.4708 57.8057 26.8366C57.8057 24.9947 57.4672 23.216 57.4672 21.4533C57.4672 19.5714 57.0245 19.0873 56.1131 17.8972C55.5276 17.1327 53.1285 17.0131 52.22 17.0131C50.5776 17.0131 48.9351 17.0131 47.2926 17.0131C43.4874 17.0131 39.6821 17.0131 35.8769 17.0131C33.1095 17.0131 28.1422 16.6163 27 20.1959" stroke="#E2C09B" stroke-width="4" stroke-linecap="round"/>
<path d="M58.5321 35C58.6754 36.2289 58.9258 37.6854 59.5369 38.7919C59.8807 39.4145 59.979 41.5638 59.979 40.8602C59.979 40.0135 60.1929 38.0151 59.2555 37.4896C58.5643 37.1021 56.7702 37.413 56 37.413" stroke="#E2C09B" stroke-width="4" stroke-linecap="round"/>
<path d="M31.9515 32.676C33.295 32.802 37.1267 33.2916 35.8559 33.7455C34.8026 34.1217 33.4299 33.8983 32.3249 33.8983C30.8428 33.8983 33.7152 33.6211 33.9716 33.6097C35.7376 33.5312 37.517 33.5927 39.2849 33.5927" stroke="#E2C09B" stroke-width="4" stroke-linecap="round"/>
<path d="M55 38C56.6436 38.1841 57.3763 41 59 41" stroke="#E2C09B" stroke-width="4" stroke-linecap="round"/>
<path d="M18 50C16.9976 50.9707 15.6593 51.5238 14.7391 52.5263C14.2212 53.0906 13.4041 53.413 13 54" stroke="#E2C09B" stroke-width="4" stroke-linecap="round"/>
<path d="M29.8343 31.457C29.7149 32.3825 29.7188 33.2993 29.7188 34.2297" stroke="#E2C09B" stroke-width="4" stroke-linecap="round"/>
</svg>
