<svg width="70" height="70" viewBox="0 0 70 70" fill="none" xmlns="http://www.w3.org/2000/svg">
<circle cx="35" cy="35" r="35" fill="#AD5E5E"/>
<path d="M18.3613 13.0957C20.4291 14.3835 23.0992 14.8354 25.3741 15.6609C25.7127 15.7838 26.4936 15.8179 26.7619 16.036C27.2186 16.4072 28.5739 13.1791 28.755 12.8857C29.5015 11.676 30.1442 10.3185 30.9843 9.18042" stroke="#E2C09B" stroke-width="4" stroke-linecap="round"/>
<path d="M13.7617 18.3607C14.1435 20.2419 14.4274 22.1405 15.236 23.8834C15.6343 24.742 15.8135 25.5587 16.0592 26.4411C16.1848 26.8926 14.7418 27.4014 14.3454 27.6547C12.7537 28.6716 11.0495 29.5166 9.18164 29.8361" stroke="#E2C09B" stroke-width="4" stroke-linecap="round"/>
<path d="M8.0332 39.0165C8.70743 39.0619 9.29134 39.3689 9.9268 39.5673C11.441 40.04 13.0287 40.2256 14.5513 40.6613C15.4195 40.9098 16.2789 41.1375 17.1021 41.4952C17.6892 41.7503 15.7709 44.5473 15.6389 44.7695C14.8174 46.1516 13.7995 47.7411 13.5262 49.3443" stroke="#E2C09B" stroke-width="4" stroke-linecap="round"/>
<path d="M18.3613 55.2198C20.1412 54.0904 22.2878 53.1811 24.2476 52.4089C24.2785 52.3967 26.2524 51.47 26.4484 51.6668C26.6866 51.9062 26.8292 52.3333 26.9781 52.6263C27.5394 53.7308 28.2529 54.7543 28.8954 55.8119C29.6578 57.067 30.4402 58.3057 30.9843 59.6722" stroke="#E2C09B" stroke-width="4" stroke-linecap="round"/>
<path d="M37.8691 60.8197C38.0534 58.2322 39.6662 55.9876 40.4636 53.539C40.6836 52.8635 40.9533 52.2767 41.3118 51.6394" stroke="#E2C09B" stroke-width="4" stroke-linecap="round"/>
<path d="M41.3125 51.6394C42.9998 51.7952 44.5452 52.9709 46.0257 53.7349C46.9637 54.219 47.9229 54.5657 48.9303 54.8409C49.1579 54.903 49.2539 54.8879 49.3453 55.082" stroke="#E2C09B" stroke-width="4" stroke-linecap="round"/>
<path d="M55.3762 50.492C54.9952 49.0187 54.7451 47.5442 54.246 46.1033C53.8746 45.0314 53.2483 44.1061 52.863 43.0419C52.4246 41.8309 53.9941 41.1334 54.7725 40.6289C56.3548 39.6033 58.1107 38.9175 59.6724 37.869" stroke="#E2C09B" stroke-width="4" stroke-linecap="round"/>
<path d="M52.7871 27.5411C55.0142 27.8971 57.2171 29.0709 59.4513 29.3066C59.8922 29.3531 60.3199 29.8362 60.8199 29.8362" stroke="#E2C09B" stroke-width="4" stroke-linecap="round"/>
<path d="M51.6406 27.5411C51.9784 25.6032 53.077 23.7064 53.8669 21.9152C54.2334 21.0839 54.5831 20.2735 55.0832 19.5083" stroke="#E2C09B" stroke-width="4" stroke-linecap="round"/>
<path d="M41.3125 16.0657C42.672 15.94 43.8247 15.7174 45.0659 15.1732C46.0405 14.7458 47.0374 14.1809 48.1181 14.0406C48.5295 13.9872 48.9855 13.9399 49.3453 13.7706" stroke="#E2C09B" stroke-width="4" stroke-linecap="round"/>
<path d="M41.3118 17.2132C41.1978 16.1071 40.1783 15.006 39.6934 14.0384C39.2941 13.2414 38.8236 12.5821 38.3399 11.8504C38.0538 11.4175 37.8691 10.8537 37.8691 10.328" stroke="#E2C09B" stroke-width="4" stroke-linecap="round"/>
<path d="M30.9844 9.18042H35.5745" stroke="#E2C09B" stroke-width="4" stroke-linecap="round"/>
<path d="M13.7715 18.3608C14.4329 18.0936 15.0678 16.759 15.4851 16.1847C15.8244 15.7179 16.2316 15.2207 16.495 14.6887C16.6743 14.3264 16.9505 14.0636 17.2141 13.7706" stroke="#E2C09B" stroke-width="4" stroke-linecap="round"/>
<path d="M8.0332 30.9838V37.869" stroke="#E2C09B" stroke-width="4" stroke-linecap="round"/>
<path d="M13.7715 50.4919C14.8355 51.5954 15.924 52.7179 17.0583 53.7504C17.5022 54.1544 17.8327 54.8177 18.3616 55.0821" stroke="#E2C09B" stroke-width="4" stroke-linecap="round"/>
<path d="M32.1309 59.6724C32.8987 60.3431 33.8523 60.2593 34.681 60.4013C34.9902 60.4542 36.5266 61.2357 36.721 60.5188" stroke="#E2C09B" stroke-width="4" stroke-linecap="round"/>
<path d="M55.0824 50.4919C53.4663 51.8625 52.048 53.6872 50.4922 55.0821" stroke="#E2C09B" stroke-width="4" stroke-linecap="round"/>
<path d="M59.6719 29.8362C59.6719 30.1767 59.6719 31.142 59.6719 31.6629C59.6719 32.4956 59.6719 33.3282 59.6719 34.1609C59.6719 35.0181 59.6719 35.8619 59.6719 36.7214" stroke="#E2C09B" stroke-width="4" stroke-linecap="round"/>
<path d="M49.3438 13.7706C51.0151 14.7495 52.4248 16.2585 54.0362 17.3654C54.2625 17.5209 54.9883 18.1541 55.0815 18.3608" stroke="#E2C09B" stroke-width="4" stroke-linecap="round"/>
<path d="M39.2587 25.8872C38.7029 25.7111 38.4918 24.688 37.8391 24.635C37.2733 24.589 36.7628 24.2176 36.1634 24.2176C34.7088 24.2176 32.486 23.7863 31.1583 24.5654C28.9833 25.8419 26.9459 27.9303 26.2483 30.5096C25.8664 31.9216 25.6055 33.43 25.3044 34.8615C25.0945 35.8589 25.5042 36.9944 25.6995 37.9225C25.871 38.7378 26.7594 39.8924 27.302 40.4656C27.99 41.1923 29.029 41.8945 29.907 42.3362C32.2829 43.5313 35.272 44.1053 37.8098 43.0628C39.0486 42.5539 40.2782 41.8117 41.3953 41.0531C42.2142 40.497 42.8336 39.6583 43.0491 38.6568C43.1736 38.0783 43.4012 37.5636 43.5028 36.9872C43.6275 36.2791 43.6052 35.5897 43.6052 34.8692C43.6052 33.2955 43.5474 31.9237 43.2101 30.4091C42.8511 28.7974 41.7036 27.0792 40.5026 26.0573C39.4795 25.1866 38.9195 24.2176 37.5464 24.2176" stroke="#E2C09B" stroke-width="4" stroke-linecap="round"/>
<path d="M12.623 19.5083C12.623 20.0526 13.2093 20.7296 13.4837 21.1876C13.8539 21.8057 14.2486 22.4016 14.5878 23.0256C15.159 24.0765 15.5802 25.3515 16.0657 26.3935" stroke="#E2C09B" stroke-width="4" stroke-linecap="round"/>
</svg>
