<svg width="78" height="78" viewBox="0 0 78 78" fill="none" xmlns="http://www.w3.org/2000/svg">
<g filter="url(#filter0_d_52_3019)">
<circle cx="39" cy="35" r="35" fill="#AD5E5E"/>
</g>
<path d="M22.6039 21.9301C22.6039 23.6371 22.6039 25.3441 22.6039 27.0511C22.6039 28.8304 22.394 30.7709 22.8777 32.5068C23.1698 33.5549 23.2934 34.6663 23.476 35.7417C23.6462 36.7437 23.4215 37.7736 23.6129 38.7788C23.8661 40.1078 23.9947 41.3646 24.0591 42.7184C24.0777 43.1096 24.0648 43.4561 24.1605 43.839C24.3083 44.43 24.3111 44.989 24.409 45.5882C24.6613 47.1339 25.1594 48.7341 25.1594 50.3138C25.1594 50.7109 25.3111 51.1542 25.347 51.5611C25.3995 52.1562 25.35 52.8996 25.5447 53.4676C25.5771 53.562 25.8146 53.5762 25.8895 53.6399C26.0746 53.7973 26.3135 53.8233 26.4574 54.0151C26.5741 54.1707 27.2032 54.0356 27.4005 54.1013C27.9223 54.2753 28.4664 54.2844 28.9672 54.507C29.4527 54.7228 30.0717 54.57 30.5897 54.6084C31.1372 54.6489 31.6644 54.6946 32.2173 54.6946C32.6421 54.6946 33.0277 54.8723 33.4443 54.9481C34.2184 55.0888 35.0626 54.9229 35.8274 55.1002C37.1274 55.4017 38.5179 55.1509 39.8481 55.1509C40.2546 55.1509 40.6289 55.2616 41.0447 55.2371C41.5698 55.2062 41.9913 54.9585 42.4898 54.8872C43.1234 54.7967 43.7494 54.9684 44.376 54.9684C44.8762 54.9684 45.3765 54.9684 45.8768 54.9684C46.114 54.9684 46.3184 54.8991 46.5156 54.7808C46.7669 54.63 46.7471 54.6946 47.0632 54.6946" stroke="#E2C09B" stroke-width="3" stroke-linecap="round"/>
<path d="M23.2434 20.6521C22.6532 21.278 22.8975 21.291 23.6135 21.291C25.2371 21.291 26.8401 21.0768 28.4608 21.0273C33.5037 20.8733 38.4991 21.7013 43.5349 21.149C44.9084 20.9983 46.3415 21.1084 47.723 21.1084C48.687 21.1084 49.8272 21.2882 50.75 20.931C51.1848 20.7626 51.7124 20.8346 52.1747 20.8346" stroke="#E2C09B" stroke-width="3" stroke-linecap="round"/>
<path d="M51.0805 21.9301C50.975 23.5916 50.9524 25.2626 50.6952 26.9091C50.4982 28.1699 50.5346 29.4349 50.3605 30.6916C50.0724 32.7715 49.7606 34.8579 49.6405 36.9585C49.6022 37.6293 49.7048 38.3444 49.5797 39.0069C49.4978 39.4403 49.3717 39.8411 49.3059 40.2847C49.2263 40.821 48.9965 41.3333 48.9814 41.8768C48.9669 42.3987 48.9919 42.9214 48.9763 43.4435C48.9153 45.4876 47.9775 47.383 47.9775 49.4011C47.9775 50.5415 47.7949 51.6443 47.7949 52.778" stroke="#E2C09B" stroke-width="3" stroke-linecap="round"/>
<path d="M35.7489 13.9904C35.5648 13.1068 36.2782 12.0864 37.199 12.662C37.5938 12.9087 37.483 13.4548 37.483 13.8484C37.483 14.5186 36.2572 13.9023 36.2965 13.3718C36.3204 13.0497 36.9915 12.7341 37.1128 13.098C37.6624 14.7467 35.7762 13.7236 35.181 13.1284C34.8875 12.8349 35.1088 11.8289 35.6576 11.9825C36.0968 12.1055 36.6281 12.8817 36.7325 13.311C36.7892 13.5438 35.9492 13.4428 35.8097 13.4428C35.6778 13.4428 35.5312 13.4579 35.7895 13.3718C36.3206 13.1948 36.8643 13.0159 37.417 12.9206C37.7307 12.8665 38.3093 12.8101 38.4666 13.1791C38.6731 13.6636 38.6756 14.2325 38.1675 14.4771C37.6863 14.7088 37.6655 13.9221 37.6655 13.6253" stroke="#E2C09B" stroke-width="3" stroke-linecap="round"/>
<path d="M35.1995 15.6334C34.1172 15.6334 33.366 16.2722 32.4209 16.6881C32.1142 16.823 31.9097 16.9878 31.5843 17.1089C31.2352 17.2388 30.5712 17.4208 30.3015 17.6616C30.1239 17.8202 29.9308 17.89 29.7742 18.057C29.6487 18.1909 30.0928 18.0443 30.1393 18.0368C30.9521 17.9046 31.709 17.7609 32.4159 17.3269C33.1992 16.8459 34.1474 16.8522 34.946 16.4143C35.215 16.2667 35.4258 16.1676 35.7116 16.0796C35.9394 16.0095 36.3853 15.7627 36.6242 15.8362C36.8384 15.9021 37.0237 16.2159 37.1769 16.3585C37.6345 16.7842 38.2253 16.8955 38.8298 16.9619C40.2745 17.1204 41.6379 17.0015 43.0484 17.3776C43.9049 17.606 44.8852 18.2004 45.5125 18.8277" stroke="#E2C09B" stroke-width="3" stroke-linecap="round"/>
<path d="M30.9102 29.3234C31.0461 30.947 31.0931 32.6427 31.4375 34.2416C31.7264 35.5832 31.9334 36.9159 32.0003 38.2877C32.0475 39.2564 31.9956 40.1656 32.1777 41.122C32.309 41.811 32.2552 42.501 32.4211 43.2059C32.4802 43.457 32.5529 43.7597 32.5529 44.0172C32.5529 44.2245 32.7803 44.3328 32.8267 44.5648" stroke="#E2C09B" stroke-width="2" stroke-linecap="round"/>
<path d="M42.9592 29.2312C42.9592 30.9139 42.9144 32.4372 42.5536 34.0683C42.3177 35.1346 42.0595 36.1232 42.0465 37.2018C42.0312 38.4754 41.9553 39.7473 41.9553 41.0248C41.9553 41.3277 42.0832 42.4322 41.8234 42.627C41.6128 42.785 41.5961 43.2797 41.5902 43.5397C41.5815 43.9214 41.5636 44.0723 41.3164 44.3814" stroke="#E2C09B" stroke-width="2" stroke-linecap="round"/>
<path d="M36.2053 29.1401C35.9194 30.7839 36.2259 32.5479 36.3828 34.1953C36.419 34.5763 36.5565 34.8879 36.5704 35.2752C36.5858 35.7089 36.8442 35.9527 36.8442 36.3502" stroke="#E2C09B" stroke-width="2" stroke-linecap="round"/>
<defs>
<filter id="filter0_d_52_3019" x="0" y="0" width="78" height="78" filterUnits="userSpaceOnUse" color-interpolation-filters="sRGB">
<feFlood flood-opacity="0" result="BackgroundImageFix"/>
<feColorMatrix in="SourceAlpha" type="matrix" values="0 0 0 0 0 0 0 0 0 0 0 0 0 0 0 0 0 0 127 0" result="hardAlpha"/>
<feOffset dy="4"/>
<feGaussianBlur stdDeviation="2"/>
<feComposite in2="hardAlpha" operator="out"/>
<feColorMatrix type="matrix" values="0 0 0 0 0 0 0 0 0 0 0 0 0 0 0 0 0 0 0.25 0"/>
<feBlend mode="normal" in2="BackgroundImageFix" result="effect1_dropShadow_52_3019"/>
<feBlend mode="normal" in="SourceGraphic" in2="effect1_dropShadow_52_3019" result="shape"/>
</filter>
</defs>
</svg>
