<svg width="82" height="82" viewBox="0 0 82 82" fill="none" xmlns="http://www.w3.org/2000/svg">
<g filter="url(#filter0_d_453_197)">
<circle cx="41" cy="37" r="37" fill="#AD5E5E"/>
</g>
<path d="M23.1699 28.1813C23.2791 27.6897 24.7438 26.9211 25.1485 26.6681C26.7422 25.6721 28.4177 24.6497 30.0836 23.7816C31.9982 22.7838 33.9879 21.6143 35.7404 20.3829C37.5695 19.0976 39.8327 17.6298 41.9791 16.9144C42.6813 16.6803 43.5851 16.4074 44.3302 16.4488C45.2579 16.5003 44.568 19.4877 44.5398 20.0104C44.3883 22.8116 44.3302 25.6367 44.3302 28.4723C44.3302 32.74 44.3302 37.0078 44.3302 41.2756C44.3302 45.4532 43.7017 49.5789 43.7017 53.7879C43.7017 55.4307 44.2212 57.8943 42.6542 58.8161C41.4616 59.5176 39.9873 59.6244 38.7899 58.56C38.383 58.1983 37.506 57.9315 36.9974 57.9315C36.3304 57.9315 35.2534 56.7229 34.786 56.2554C33.3099 54.7794 31.3633 53.5314 29.5715 52.3912C28.7389 51.8613 27.5468 51.3565 26.6151 51.0177C25.713 50.6897 24.9107 50.0186 24.0079 49.7607C23.2717 49.5503 22.8925 49.0089 22.2271 48.7131C21.5261 48.4016 21.407 46.6678 21.1912 45.9895C20.3695 43.407 20.4462 40.3183 20.4462 37.6208C20.4462 35.1584 20.6557 32.7064 20.6557 30.2764" stroke="#E2C09B" stroke-width="3" stroke-linecap="round"/>
<path d="M46.7696 24.1187C50.6454 24.1187 54.5212 24.1187 58.397 24.1187C58.9717 24.1187 59.9732 23.8805 60.3696 24.3264C60.8564 24.8741 60.8037 25.9722 60.9405 26.6565C61.179 27.8487 60.9924 29.2152 60.9924 30.4285C60.9924 31.639 61.1333 32.9417 60.9405 34.137C60.8246 34.8557 60.9294 35.5888 60.8367 36.3114C60.7414 37.0549 60.6925 37.823 60.681 38.5723C60.6587 40.0187 60.2657 41.4458 60.2657 42.9037C60.2657 44.763 60.5461 46.9239 59.9312 48.7002C59.8053 49.0639 59.991 50.0434 59.6947 50.2805C59.602 50.3546 59.5751 50.5443 59.4756 50.6438C59.1586 50.9608 58.7162 51.0275 58.2932 51.0879C56.5715 51.3339 54.5133 51.4091 52.7852 51.1571C51.4743 50.966 50.2231 50.3505 48.8921 50.2805C48.2724 50.2479 47.69 50.0728 47.0753 50.0728C46.6815 50.0728 45.9668 50.2183 45.7314 49.8652" stroke="#E2C09B" stroke-width="3" stroke-linecap="round"/>
<path d="M28.1855 32.4241C30.6054 36.0538 33.5109 39.3887 36.2198 42.7999C36.6793 43.3785 37.4088 44.6662 38.0481 44.9858" stroke="#E2C09B" stroke-linecap="round"/>
<path d="M35.3495 31.6978C35.2548 32.2183 34.7293 32.8678 34.4497 33.3011C33.8106 34.2917 33.1314 35.269 32.4657 36.2426C31.5089 37.6419 30.4794 38.9887 29.5358 40.3953C29.1309 40.9987 28.7465 41.6135 28.3361 42.2063C28.211 42.3871 28.1193 42.8395 27.9785 42.9099" stroke="#E2C09B" stroke-linecap="round"/>
<path d="M48.2227 32.1127C48.9594 31.6593 50.5899 32.1195 51.3602 32.2165C52.7407 32.3904 54.1013 32.4242 55.4898 32.4242" stroke="#E2C09B" stroke-linecap="round"/>
<path d="M46.7695 37.4075C48.4945 37.4254 50.2164 37.5531 51.9373 37.667C52.5713 37.709 53.8151 37.5712 54.3481 37.9266" stroke="#E2C09B" stroke-linecap="round"/>
<path d="M47.2871 43.6361C49.5858 43.5362 51.9592 43.2833 54.139 44.1552" stroke="#E2C09B" stroke-linecap="round"/>
<defs>
<filter id="filter0_d_453_197" x="0" y="0" width="82" height="82" filterUnits="userSpaceOnUse" color-interpolation-filters="sRGB">
<feFlood flood-opacity="0" result="BackgroundImageFix"/>
<feColorMatrix in="SourceAlpha" type="matrix" values="0 0 0 0 0 0 0 0 0 0 0 0 0 0 0 0 0 0 127 0" result="hardAlpha"/>
<feOffset dy="4"/>
<feGaussianBlur stdDeviation="2"/>
<feComposite in2="hardAlpha" operator="out"/>
<feColorMatrix type="matrix" values="0 0 0 0 0 0 0 0 0 0 0 0 0 0 0 0 0 0 0.25 0"/>
<feBlend mode="normal" in2="BackgroundImageFix" result="effect1_dropShadow_453_197"/>
<feBlend mode="normal" in="SourceGraphic" in2="effect1_dropShadow_453_197" result="shape"/>
</filter>
</defs>
</svg>
