<svg width="78" height="78" viewBox="0 0 78 78" fill="none" xmlns="http://www.w3.org/2000/svg">
<g filter="url(#filter0_d_52_3013)">
<circle cx="39" cy="35" r="35" fill="#AD5E5E"/>
</g>
<path d="M17.397 29.0412C17.9242 27.1434 19.2334 25.5253 19.8206 23.657C20.2011 22.4465 21.065 21.6125 21.7829 20.6138C22.0493 20.2431 22.142 19.798 22.4232 19.4365C22.7019 19.078 23.0286 18.8103 23.3458 18.4932C24.0252 17.8138 24.6238 17.0868 25.3838 16.4827C26.1885 15.8431 27.2797 15.652 28.1241 15.0368C28.8823 14.4844 29.3853 14.2251 30.3135 14.0729C31.4299 13.8899 32.4845 13.1047 33.5771 12.7648C35.1278 12.2823 36.6609 12.2964 38.2728 12.3103C40.3346 12.3281 42.4987 12.2695 44.5589 12.4411C45.7488 12.5403 46.9075 13.057 48.0703 13.3018C48.37 13.3649 48.5307 13.6034 48.807 13.7218C49.0184 13.8124 49.2493 13.7601 49.4267 13.9215C49.6243 14.1011 49.8557 14.0943 50.1014 14.1762C50.3493 14.2588 50.5263 14.5026 50.79 14.61C51.3065 14.8204 51.7124 15.3867 52.2565 15.6427C52.8051 15.9009 53.2479 16.3021 53.7712 16.5929C55.0489 17.3027 56.1097 18.5385 56.959 19.6912C57.7873 20.8153 58.2514 22.2528 59.1347 23.3128C59.531 23.7882 59.6242 24.5906 59.837 25.158C60.0955 25.8472 60.4971 26.4794 60.7183 27.1822C60.9472 27.9094 60.8982 28.7256 61.2141 29.413C61.4435 29.9125 61.6409 30.6592 61.6409 31.2032C61.6409 32.8443 61.7649 34.487 61.7649 36.1329C61.7649 37.2847 61.9487 38.6388 61.7511 39.7752C61.6644 40.2736 61.4673 40.7504 61.4 41.2555C61.3129 41.9086 61.4401 42.6617 61.2485 43.3003C61.1321 43.6883 60.7631 43.9241 60.6564 44.3331C60.5897 44.5885 60.5155 44.8445 60.4016 45.0836C60.1344 45.6448 60.0416 46.3521 59.7062 46.8737C59.6267 46.9975 59.477 47.004 59.3826 47.1078C59.1859 47.3242 59.1271 47.6446 58.9144 47.879C58.6087 48.2159 58.5511 48.5293 58.3361 48.898C58.044 49.3986 57.6304 49.8377 57.3033 50.3163C56.8881 50.9237 56.4181 51.5716 55.94 52.134C55.49 52.6634 55.1163 53.1781 54.6456 53.6349C54.2832 53.9868 53.8602 54.3325 53.5234 54.6953C53.0837 55.1687 52.6462 55.3194 52.105 55.6316C51.5009 55.9802 50.9539 56.3943 50.3011 56.6782C49.6897 56.944 48.9538 56.9385 48.3182 57.1739C45.4273 58.2446 42.3243 58.5682 39.2642 59.0054C38.3231 59.1398 37.3736 59.6182 36.4275 59.6526C35.8511 59.6735 35.2695 59.6526 34.6925 59.6526C33.8941 59.6526 33.4785 59.5276 32.7647 59.1844C32.1934 58.9097 31.3895 58.7344 30.9745 58.2618C30.5307 57.7563 29.4458 57.5158 28.8126 57.3047C27.7339 56.9452 26.7754 56.2417 25.7831 55.7005C25.0134 55.2806 24.238 54.641 23.6418 53.993C22.9847 53.2786 22.6869 52.4108 22.1615 51.6383C21.5959 50.8064 21.2576 49.7859 20.7983 48.898C20.4492 48.2231 19.9581 47.2321 19.3868 46.7085C18.6567 46.0393 18.2925 44.9974 17.9409 44.099C17.3816 42.6695 17.2687 41.0815 16.8324 39.603C16.6536 38.9971 16.3014 38.1766 16.2816 37.565C16.25 36.5852 16.2816 35.5986 16.2816 34.6182C16.2816 32.7889 16.9548 30.929 17.3006 29.1652C17.521 28.041 17.8927 26.9794 17.8927 25.819" stroke="#E2C09B" stroke-width="3" stroke-linecap="round"/>
<path d="M23.0957 20.6141C23.2237 20.9982 23.6046 21.2143 23.9081 21.4541C24.424 21.8617 24.8304 22.3351 25.2921 22.7967C26.5437 24.0484 27.872 25.2173 29.0307 26.5629C30.0583 27.7562 31.0677 28.8886 32.3631 29.7989C33.2919 30.4516 34.1221 31.0809 34.828 31.9815C35.6042 32.9719 36.5417 33.8973 37.527 34.6805C38.4177 35.3885 39.0395 36.4168 39.7715 37.2762C40.9024 38.6037 41.8772 40.1393 43.1108 41.3728C43.5581 41.8201 43.8362 42.401 44.2331 42.8944C44.6465 43.4084 45.1115 43.8752 45.5275 44.3816C45.7353 44.6346 46.0634 44.7463 46.3055 44.96C46.5382 45.1653 46.6535 45.4767 46.8907 45.6898C47.468 46.2082 47.825 46.8066 48.2265 47.4662C48.904 48.5793 50.2291 49.2997 50.953 50.3855C51.2219 50.7889 51.8686 51.6024 52.3438 51.7212" stroke="#E2C09B" stroke-width="3" stroke-linecap="round"/>
<defs>
<filter id="filter0_d_52_3013" x="0" y="0" width="78" height="78" filterUnits="userSpaceOnUse" color-interpolation-filters="sRGB">
<feFlood flood-opacity="0" result="BackgroundImageFix"/>
<feColorMatrix in="SourceAlpha" type="matrix" values="0 0 0 0 0 0 0 0 0 0 0 0 0 0 0 0 0 0 127 0" result="hardAlpha"/>
<feOffset dy="4"/>
<feGaussianBlur stdDeviation="2"/>
<feComposite in2="hardAlpha" operator="out"/>
<feColorMatrix type="matrix" values="0 0 0 0 0 0 0 0 0 0 0 0 0 0 0 0 0 0 0.25 0"/>
<feBlend mode="normal" in2="BackgroundImageFix" result="effect1_dropShadow_52_3013"/>
<feBlend mode="normal" in="SourceGraphic" in2="effect1_dropShadow_52_3013" result="shape"/>
</filter>
</defs>
</svg>
