<svg width="78" height="78" viewBox="0 0 78 78" fill="none" xmlns="http://www.w3.org/2000/svg">
<g filter="url(#filter0_d_52_3000)">
<circle cx="39" cy="35" r="35" fill="#AD5E5E"/>
</g>
<path d="M22.9727 35.7809C26.3714 35.7809 29.8068 35.9612 33.1834 35.511C35.5692 35.1929 37.949 35.2411 40.3503 35.2411C42.6894 35.2411 45.0284 35.2411 47.3674 35.2411C48.614 35.2411 51.2984 34.7541 52.1279 35.9983C52.3151 36.2792 52.5741 36.548 52.8626 36.7255C53.2694 36.9759 53.2971 37.4862 53.7097 37.7001C54.0947 37.8997 54.3057 38.4734 54.4744 38.8396C54.9125 39.791 55.3179 40.6053 55.5839 41.621C56.0901 43.5537 56.5735 45.5132 56.5735 47.521" stroke="#E2C09B" stroke-width="3" stroke-linecap="round"/>
<path d="M21.8945 35.5106C22.1582 34.6476 22.9668 33.9705 23.5888 33.3665C24.7807 32.2093 26.0933 31.1971 27.3147 30.0754C28.2664 29.2014 29.0422 28.1469 30.1785 27.489C30.495 27.3058 30.5288 27.0438 30.9057 26.9042C31.2721 26.7685 31.6819 26.5345 32.0153 26.3345" stroke="#E2C09B" stroke-width="3" stroke-linecap="round"/>
<path d="M21.082 36.5903C21.7898 36.8937 22.381 37.8312 22.9188 38.3596C24.0694 39.49 25.1081 40.728 26.015 42.063C26.5677 42.8768 27.1933 43.7138 27.6193 44.6045C27.769 44.9174 27.9352 45.0773 28.234 45.2267" stroke="#E2C09B" stroke-width="3" stroke-linecap="round"/>
<defs>
<filter id="filter0_d_52_3000" x="0" y="0" width="78" height="78" filterUnits="userSpaceOnUse" color-interpolation-filters="sRGB">
<feFlood flood-opacity="0" result="BackgroundImageFix"/>
<feColorMatrix in="SourceAlpha" type="matrix" values="0 0 0 0 0 0 0 0 0 0 0 0 0 0 0 0 0 0 127 0" result="hardAlpha"/>
<feOffset dy="4"/>
<feGaussianBlur stdDeviation="2"/>
<feComposite in2="hardAlpha" operator="out"/>
<feColorMatrix type="matrix" values="0 0 0 0 0 0 0 0 0 0 0 0 0 0 0 0 0 0 0.25 0"/>
<feBlend mode="normal" in2="BackgroundImageFix" result="effect1_dropShadow_52_3000"/>
<feBlend mode="normal" in="SourceGraphic" in2="effect1_dropShadow_52_3000" result="shape"/>
</filter>
</defs>
</svg>
