<svg width="481" height="480" viewBox="0 0 481 480" fill="none" xmlns="http://www.w3.org/2000/svg">
<circle cx="240.5" cy="239.5" r="235.5" fill="white"/>
<path d="M74.7113 412.811C233.202 265.346 133.284 137.175 63.5136 91.5226C85.5644 68.7826 109.453 55.0583 118.641 51.0386C254.736 258.627 126.393 441.236 118.641 443.82C112.439 445.887 86.7703 424.008 74.7113 412.811Z" fill="#E2C09B"/>
<path d="M17 318.922C189.962 262.417 89.0673 212.688 17 194.886C17 154.23 41.1181 123.967 53.1772 113.918C213.046 230.374 119.789 343.902 53.1772 386.109C35.95 355.789 21.8811 328.684 17 318.922Z" fill="#E2C09B"/>
<path d="M405.178 81.7994C246.16 228.696 345.619 357.224 415.225 403.126C393.093 425.786 369.156 439.425 359.954 443.412C224.602 235.338 353.598 53.1896 361.36 50.6333C367.569 48.5883 393.159 70.5586 405.178 81.7994Z" fill="#E2C09B"/>
<path d="M462.553 175.894C289.39 231.78 390.106 281.87 462.109 299.929C461.963 340.585 437.737 370.761 425.642 380.767C266.191 263.74 359.854 150.547 426.616 108.579C449 138 454.5 150 462.553 175.894Z" fill="#E2C09B"/>
<path fill-rule="evenodd" clip-rule="evenodd" d="M339.98 38.3585C320.425 65.9233 306.407 94.5348 296.826 123.354C294.799 112.635 275.375 119.536 255.235 130.658L255.656 13.077C299.073 11.8543 329.962 29.4219 339.98 38.3585ZM255.002 195.878L255.235 130.658C255.157 130.701 255.078 130.744 255 130.788V130.5L249.188 134.108C246.232 135.846 243.296 137.647 240.435 139.467L224.588 131.544V14C200.47 17.1583 149.822 26.5759 140.175 38.9795C185.253 112.482 248.362 297.905 140.175 451.572C150.224 460.473 181.176 477.93 224.588 476.552V199.6L225.422 200.549C229.933 205.928 234.455 211.136 238.807 216C238.838 215.962 238.869 215.924 238.9 215.886L239 216L255 196V195.88C255.001 195.879 255.001 195.879 255.002 195.878ZM290.773 143.771C292.553 136.961 294.566 130.152 296.826 123.354C297.592 127.403 295.874 133.968 290.773 143.771ZM290.773 143.771C284.508 155.81 273.14 172.733 255.002 195.878L254 475.626C278.129 472.554 328.811 463.317 338.503 450.948C303.648 393.657 258.129 268.627 290.773 143.771ZM255 195.88V130.788C253.064 131.86 251.121 132.97 249.188 134.108L240.5 139.5L240.435 139.467C240.38 139.502 240.326 139.536 240.272 139.571C234.574 136.539 229.356 133.909 224.588 131.654V131.544L224.5 131.5V131.613C149.593 96.2153 186.234 153.604 224.5 199.447V199.5L224.588 199.6V199.553C224.866 199.886 225.144 200.218 225.422 200.549L238.9 215.886C244.776 208.752 250.132 202.092 255 195.88ZM224.588 199.553C224.559 199.518 224.529 199.482 224.5 199.447V131.613C224.529 131.627 224.559 131.64 224.588 131.654V199.553Z" fill="#E2C09B"/>
<path d="M473.5 240C473.5 368.392 369.197 472.5 240.5 472.5C111.803 472.5 7.5 368.392 7.5 240C7.5 111.609 111.803 7.5 240.5 7.5C369.197 7.5 473.5 111.609 473.5 240Z" stroke="#AD5E5E" stroke-width="15"/>
<path d="M354.968 110.282C308.188 30.0131 259.497 61.5958 241 87.4208V142.034C241 135.938 259.696 118.326 269.045 110.282C310.097 89.9609 317.178 122.983 315.587 142.034C307.472 167.436 262.481 211.042 241 229.67V284.284C241 247.705 293.907 232.634 320.36 229.67C351.388 223.32 401.749 190.552 354.968 110.282Z" fill="#AD5E5E"/>
<path d="M127.032 110.499C173.812 29.8908 222.503 61.6068 241 87.5407V142.385C241 136.263 222.304 118.577 212.955 110.499C171.903 90.0916 164.822 123.253 166.413 142.385C174.528 167.894 219.519 211.684 241 230.39V285.234C241 248.502 188.093 233.366 161.64 230.39C130.612 224.013 80.251 191.107 127.032 110.499Z" fill="#AD5E5E"/>
<path fill-rule="evenodd" clip-rule="evenodd" d="M58.9154 384.98C76.9092 349.198 95.2075 317.137 95.2075 317.137C95.2075 317.137 141.709 218.888 185 232.089C166.169 208.183 121.848 164.686 95.2075 181.949C89.7913 185.459 81.5306 190.066 81.5306 190.066C81.5306 190.066 43.4729 223.204 32.7691 244.783C29.0487 252.283 20.5007 263.311 10.4111 274.508L25.4997 334L58.9154 384.98Z" fill="#AD5E5E"/>
<path fill-rule="evenodd" clip-rule="evenodd" d="M418.015 388.554C399.424 351.125 379.792 316.61 379.792 316.61C379.792 316.61 333.291 218.027 290 231.273C308.831 207.286 353.152 163.641 379.792 180.963C385.208 184.485 393.469 189.107 393.469 189.107C393.469 189.107 431.527 222.358 442.231 244.01C447.421 254.51 462.009 271.899 477.069 287.026L469 288L418.015 388.554Z" fill="#AD5E5E"/>
</svg>
