<svg width="237" height="330" viewBox="0 0 237 330" fill="none" xmlns="http://www.w3.org/2000/svg">
<path d="M113.968 51.2823C67.1876 -28.9869 18.4975 2.59581 0 28.4208V83.0345C0 76.9381 18.6964 59.3262 28.0445 51.2823C69.097 30.9609 76.1777 63.9832 74.5866 83.0345C66.4715 108.436 21.4809 152.042 0 170.67V225.284C0 188.705 52.9067 173.634 79.3601 170.67C110.388 164.32 160.749 131.552 113.968 51.2823Z" fill="#AD5E5E"/>
<path fill-rule="evenodd" clip-rule="evenodd" d="M177.015 329.554C158.424 292.125 138.792 257.61 138.792 257.61C138.792 257.61 92.2906 159.027 49 172.273C67.8306 148.286 112.152 104.641 138.792 121.963C144.208 125.485 152.469 130.107 152.469 130.107C152.469 130.107 190.527 163.358 201.231 185.01C206.421 195.51 221.009 212.899 236.069 228.026L228 229L177.015 329.554Z" fill="#AD5E5E"/>
</svg>
