<svg width="125" height="125" viewBox="0 0 125 125" fill="none" xmlns="http://www.w3.org/2000/svg">
<rect opacity="0.62" width="125" height="125" rx="1" fill="#AD5E5E"/>
<g style="mix-blend-mode:multiply">
<rect x="1" width="63" height="125" rx="2" fill="#E2C09B"/>
</g>
<g opacity="0.38">
<path d="M60 65H62.9731" stroke="#3B3B3B" stroke-width="102" stroke-linecap="round"/>
</g>
<path d="M61 65H62.9488" stroke="#333333" stroke-width="100" stroke-linecap="round"/>
<path d="M61 65.332C61 67.5486 62.225 67.9348 63.0931 65.9816C64.1821 63.5315 61.6444 63.3989 61 65.332Z" stroke="#AD5E5E" stroke-width="25" stroke-linecap="round"/>
<path d="M62 65C62.4654 65.0582 62.6955 65.5719 62.9426 65.9426" stroke="#AD5E5E" stroke-width="25" stroke-linecap="round"/>
<path d="M78.9141 63.045C89.9531 62.2451 100.99 61.373 111.974 60" stroke="#3B3B3B" stroke-linecap="round"/>
<path d="M75 76.0948C77.6009 81.9469 80.5298 87.6761 84.0866 93.0114C85.1819 94.6543 87.5054 96.6339 87.6149 98.7147C87.6891 100.124 89.333 102.173 90.2249 103.065" stroke="#3B3B3B" stroke-linecap="round"/>
<path d="M78.4793 65.6549C78.2529 69.0508 76.3822 72.131 75.531 75.3941C75.1249 76.9507 74.705 77.6335 75.7243 75.7082C77.664 72.0443 80.5347 69.4666 83.6268 66.7908C85.0079 65.5955 87.9532 61.5164 87.5659 65.4858C87.054 70.7327 82.0753 74.3545 81.0893 79.2849C80.8395 80.5338 79.5462 81.3206 78.9143 82.4265C76.5086 86.6364 85.216 75.0439 88.6292 71.5999C90.7381 69.4721 92.9282 67.6092 94.7675 65.2683C97.841 61.3565 90.9742 74.4887 88.5809 78.8499C87.4646 80.8841 86.3912 82.9462 85.2459 84.964C83.7705 87.5635 83.9674 87.0237 85.5601 84.9157C91.1297 77.5442 97.8014 71.2872 104.942 65.4858C106.312 64.3724 104.452 69.3917 104.289 69.7633C101.75 75.5379 97.6689 80.6874 94.6709 86.2448C93.0136 89.3169 91.6543 92.4369 89.5234 95.0414C89.2726 95.3479 87.8113 96.7549 88.0009 96.3948C90.5726 91.5085 94.518 87.2231 97.9575 82.9582C101.274 78.8458 104.467 74.6712 107.527 70.3674C108.435 69.0919 109.943 66.7277 109.05 69.9566C106.463 79.3082 102.391 88.6723 97.4742 97.0231C96.3617 98.9125 95.2258 100.317 93.4625 101.325C92.9435 101.621 90.8477 102.63 91.0942 102.63" stroke="#3B3B3B" stroke-linecap="round"/>
<path d="M50.5176 53.5085C45.0875 47.6906 38.6773 43.2365 31.6094 39.7025" stroke="#333333" stroke-width="2" stroke-linecap="round"/>
<path d="M50.8165 53.5085C48.7731 52.7787 47.1296 50.0925 45.7309 48.5897C42.3115 44.9156 38.8229 41.0687 34.6761 38.2018C33.4191 37.3328 32.4631 35.9857 31.0078 35.5006" stroke="#333333" stroke-width="2" stroke-linecap="round"/>
<path d="M51.1172 54.1088C43.5616 46.5532 36.2604 38.7269 26.8066 34" stroke="#3B3B3B" stroke-linecap="round"/>
<path d="M45.114 67.0144C42.678 67.3624 40.4193 68.2428 37.9109 68.4817C33.0586 68.9438 28.1721 68.8152 23.3045 68.8152C21.5005 68.8152 19.8312 69.1153 18.1022 69.1153C17.2433 69.1153 13.4728 70.6612 13 69.7156" stroke="#3B3B3B" stroke-linecap="round"/>
<path d="M28.9076 36.101C26.0736 37.0967 23.4835 40.643 21.7378 42.9706C19.8062 45.5461 17.9516 48.315 16.3188 51.0908C14.0235 54.9927 14.0231 59.0178 13.901 63.4129C13.8811 64.132 13.3008 64.7129 13.3008 65.3637C13.3008 65.9738 13.8709 66.966 14.0511 67.6147C14.536 69.3602 14.1906 69.2309 14.7014 67.4146C15.4146 64.8787 16.6274 62.46 17.4359 59.9447C18.4195 56.8846 19.2523 53.7742 20.5039 50.8074C21.6299 48.1385 23.4484 46.7589 25.3227 44.638C26.2092 43.6348 27.4902 42.6692 28.1406 41.4866C28.2091 41.3621 28.6913 40.0489 28.5908 40.803C28.464 41.7537 28.0367 42.6112 27.5737 43.4375C26.3948 45.541 25.4389 47.7436 24.2389 49.8403C22.063 53.6418 20.2148 57.5067 19.5368 61.8455C19.2759 63.5154 18.5092 65.5069 18.7532 67.2145C18.8199 67.6819 20.1574 65.5921 20.2371 65.4471C21.7091 62.7708 22.9647 60.0204 24.1222 57.1935C26.2474 52.0029 28.4475 46.7741 32.0756 42.4204C32.2529 42.2077 33.4976 40.6549 33.8431 40.803C34.4717 41.0724 33.6208 42.9482 33.4929 43.2207C30.4393 49.7262 25.7773 55.8176 25.6061 63.3462C25.5888 64.1106 25.6494 65.26 26.5232 64.1132C29.1029 60.7273 30.6968 56.7391 33.3929 53.4252C34.3033 52.3061 35.3256 51.2924 36.3442 50.2738C36.5865 50.0314 37.4564 48.9617 37.2446 49.9737C36.9514 51.3745 35.9736 52.5952 35.277 53.8087C34.0946 55.8684 32.9798 58.0263 31.9756 60.1781C31.13 61.9901 29.347 64.9818 29.8247 67.1311C29.9139 67.5325 31.8579 65.2731 31.9589 65.1636C33.7911 63.1788 35.4411 61.0922 37.0111 58.8942C37.305 58.4827 41.2715 52.8374 41.213 54.4756C41.1003 57.6309 38.2697 60.5683 37.4446 63.5796C37.3114 64.0658 36.9476 66.114 37.7614 66.114C40.0087 66.114 42.1369 62.4911 43.4639 60.9951C45.5328 58.663 47.3896 56.124 49.1831 53.5752C49.9486 52.4875 49.1794 55.4514 48.9497 55.8429C47.4346 58.424 45.5349 60.9677 44.7478 63.8797C44.6761 64.1453 44.2143 65.5217 44.2143 65.2136" stroke="#3B3B3B" stroke-linecap="round"/>
<path d="M67.2188 50.2802C67.3219 49.146 67.926 47.9753 68.3026 46.9121C70.2367 41.4509 73.4246 36.2761 76.3394 31.2886C77.6453 29.0541 78.4195 26.6783 79.5241 24.469" stroke="#3B3B3B" stroke-linecap="round"/>
<path d="M69.3209 48.1793C72.756 44.0098 75.9694 40.2591 80.4424 37.2412C83.244 35.351 86.0318 33.3348 88.3959 30.9051C88.8892 30.3981 90.5871 29.251 89.8965 29.4045C88.282 29.7633 86.5103 32.777 85.5279 33.9231C83.7185 36.0342 81.9254 38.0874 79.7588 39.8424C76.7516 42.2781 73.6519 44.6512 70.5214 46.9121C69.5695 47.5996 68.6998 48.3984 67.7535 49.0797C66.3287 50.1056 67.1978 49.5862 68.1204 48.6462C69.7625 46.9731 70.8492 44.8441 72.1888 42.9437C73.7629 40.7107 75.8127 39.0546 77.6578 37.0745C79.1924 35.4277 81.4428 32.9209 83.5771 31.9723C84.2533 31.6717 84.349 30.917 85.0777 30.7551C85.8253 30.5889 86.7324 30.6634 87.4621 30.4549C87.8692 30.3386 87.6185 28.4831 87.4621 28.2373C86.4924 26.7134 85.1901 26.9804 83.7272 26.2698C83.2287 26.0277 80.6446 25.3694 81.6929 25.3694C84.0018 25.3694 84.7189 25.7788 86.7285 26.8033C89.1823 28.0543 85.5422 24.7739 84.9944 24.3356C84.1973 23.6979 83.4013 23.0693 82.5266 22.5348C81.095 21.6599 82.0744 22.0445 83.2936 22.3848C84.557 22.7373 86.0513 22.8595 87.262 23.3352C87.8149 23.5524 87.8312 24.8635 87.929 25.3527C88.0857 26.136 88.4781 26.664 87.7956 25.6695C87.1021 24.659 86.2033 23.4603 85.2278 22.7016C84.5918 22.2069 81.7653 21.8735 83.1769 23.2851C84.7009 24.8091 87.9995 26.0136 88.796 28.204C89.4528 30.01 84.0968 28.4131 83.4604 28.254C82.0172 27.8932 79.7356 27.1618 81.943 28.8542C82.6309 29.3816 83.3917 30.4131 84.3274 30.4716C85.1001 30.5199 82.9584 29.7288 82.3599 29.2377C81.496 28.5289 80.5528 27.0932 79.5253 26.6366C78.8602 26.341 80.0917 29.4574 80.1923 29.6379C80.9184 30.9416 84.0675 33.2624 80.7259 32.4391C78.9768 32.0082 76.3664 30.9612 78.6916 33.7731C79.1408 34.3163 80.7087 35.6856 80.359 35.0736C79.9762 34.4036 78.6182 33.9147 77.958 33.5396C74.8144 31.7535 78.1475 38.2487 78.0914 38.6418C78.0536 38.9065 73.4253 34.818 73.2393 36.9578C73.1271 38.2471 73.7544 39.1384 74.2897 40.2425C74.479 40.6329 73.7339 39.7121 73.3726 39.7923C72.1755 40.0584 73.5333 42.6827 73.3393 42.7603C73.0553 42.8739 72.5286 42.589 72.3889 42.9771C72.2201 43.4459 72.3222 44.0803 72.3222 44.5778" stroke="#3B3B3B" stroke-linecap="round"/>
<path d="M62.1422 65.7711C60.6171 65.7711 62.1587 66.4548 61.4585 66.4548C59.7766 66.4548 63.0379 65.4926 61.9523 66.1129C61.1694 66.5603 61.3065 65.166 62.2941 65.4482C63.5558 65.8087 62.0659 66.4548 61.4585 66.4548" stroke="#333333" stroke-width="2" stroke-linecap="round"/>
<path d="M61.5719 65.2405C61.1757 64.8883 60.4923 66.8098 61.5937 66.8098C62.1476 66.8098 62.4241 66.3784 62.4546 65.829C62.4841 65.2968 61.956 65.2405 61.5719 65.2405C61.1904 65.2405 61.0553 66.2706 61.2232 66.5373C61.4061 66.8278 61.6158 66.8098 61.9206 66.8098C62.3484 66.8098 62.4546 66.8818 62.4546 66.4174C62.4546 66.07 62.6323 65.1224 62.2584 64.9245C61.809 64.6866 61.4431 64.9995 61.0815 65.2405" stroke="#333333" stroke-width="2" stroke-linecap="round"/>
<path d="M0 1C0 0.447717 0.447715 0 1 0H61.5C62.0523 0 62.5 0.447715 62.5 1V62.5V124C62.5 124.552 62.0523 125 61.5 125H0.999998C0.447714 125 0 124.552 0 124V1Z" fill="#E2C09B"/>
<path d="M60 16C53.7287 16 52.5621 16.3169 46.5 17C41.7588 17.5342 34.7785 20.7859 31 23.5C29.4121 24.6406 27.1725 26.183 25.7114 27.5C24.1599 28.8985 22.5266 31.0379 21 32.5C18.261 35.1232 17.6556 37.3756 15.9779 40.5C13.0821 45.8928 12.3541 50.573 11.2289 56.5C10.5865 59.8837 11.2289 65.561 11.2289 69C11.2289 72.6082 11.4744 76.0622 12.5 79.5C13.1513 81.6831 13.7475 85.0242 15 87C16.5829 89.497 17.914 93.8871 19.883 96.192C21.8492 98.4936 23.5176 99.899 25.7114 102C26.4987 102.754 28.982 104.591 29.5 105.5C30.2724 106.856 31.4745 107.018 32.5 108C34.9501 110.347 38.4432 111.29 41.6068 112.28C43.1957 112.778 44.577 112.585 46.1867 113.017C48.117 113.534 50.8849 113.41 52.8375 113.784C55.3765 114.27 57.4256 113.784 60 113.784" stroke="#AD5E5E" stroke-width="2" stroke-linecap="round"/>
<path d="M46.3202 80.7323C44.9219 81.3602 43.9772 82.6503 42.7913 83.6C40.6445 85.3193 38.4202 86.9707 35.9636 88.2117C33.457 89.4779 30.9562 90.913 28.3879 92.0483C27.141 92.5994 26.0854 93.2524 24.9165 93.9084C24.4475 94.1717 22.7116 95.0323 22.8452 95.0323" stroke="#AD5E5E" stroke-linecap="round"/>
<path d="M46.6661 80.3834C47.1644 79.8799 47.6443 79.6193 48.2004 79.2983C48.8483 78.9243 47.7307 76.1276 47.3565 75.6361C46.4202 74.4063 45.2852 72.0359 45.2852 70.4432C45.2852 68.6638 41.7446 69.8086 40.6056 69.9006C36.5211 70.2307 32.2971 69.92 28.1968 69.92C25.488 69.92 22.8337 69.5712 20.1608 69.5712C18.6367 69.5712 16.7099 68.9941 16.6319 71.0438C16.5445 73.339 16.9169 75.4011 17.3991 77.5931C17.993 80.2934 18.081 84.1801 19.3937 86.5839C20.078 87.837 20.3745 89.5147 21.3116 90.6336C21.7687 91.1795 23.3317 92.1287 23.5171 92.7844C23.6298 93.1827 24.572 94.1383 24.572 94.1214C24.572 92.6038 24.109 90.5966 23.7089 89.1416C23.2073 87.317 23.0799 85.2766 22.6733 83.3868C22.2298 81.3258 21.7509 79.2224 21.465 77.1281C21.2057 75.2287 19.5134 72.6183 20.6211 71.1795C21.2393 70.3765 22.3758 73.8749 22.5007 74.2604C23.3058 76.746 23.8383 79.3439 24.572 81.856C24.9503 83.1514 25.8585 85.6052 26.9885 86.3901C27.583 86.8031 27.5677 87.7891 28.1009 88.3278C28.8713 89.1061 29.4051 89.9749 29.4051 88.2503C29.4051 84.9406 28.8544 81.2826 28.2927 78.0194C27.9531 76.0464 27.3743 74.0221 27.3337 72.0127C27.3 70.3402 27.8533 73.12 27.9475 73.4853C28.4533 75.4476 28.764 77.5163 28.9831 79.5308C29.2877 82.331 30.5329 86.4041 33.0107 88.1922C33.3515 88.4381 33.2025 86.234 33.2025 86.2157C33.2025 84.3879 33.2025 82.56 33.2025 80.7322C33.2025 78.2025 32.5121 75.7875 32.5121 73.2528C32.5121 72.427 32.9361 71.664 33.2217 72.9621C33.8349 75.7503 34.484 78.7699 35.619 81.391C36.1113 82.5278 37.7713 83.6286 38.0164 84.7431C38.195 85.555 38.0356 84.4099 38.0356 84.1231C38.0356 82.4567 38.0356 80.7903 38.0356 79.1239C38.0356 77.1023 38.0356 75.0806 38.0356 73.059C38.0356 71.1851 38.8848 76.7142 39.4932 78.4845C39.8004 79.3783 40.0337 80.3906 40.4521 81.236C40.6968 81.7304 41.4223 82.2956 41.4878 82.8248C41.4947 82.8805 41.4878 80.8258 41.4878 80.2284C41.4878 77.3125 41.4098 74.3848 41.4878 71.4701C41.5163 70.4029 42.7266 74.948 42.8687 75.578C42.9677 76.017 43.7785 81.3577 44.5181 81.2747C44.8063 81.2423 44.5948 74.346 44.5948 73.5628C44.5948 73.0579 44.7466 71.2219 44.7674 71.2764C45.5176 73.2469 45.703 75.6595 46.1483 77.7288C46.7607 80.5748 43.2014 74.3507 42.907 73.6403C42.6002 72.8999 42.3787 71.4695 41.6604 70.9857C41.2904 70.7365 40.9021 70.6231 40.6247 70.2494C38.9863 68.0423 38.9795 73.335 38.8795 74.086C38.5118 76.8457 38.3808 79.5021 38.3808 82.2823C38.3808 84.7675 36.0902 77.8328 35.9451 77.2831C35.3562 75.0519 34.0755 73.6651 32.8573 71.8189C32.444 71.1926 32.1305 70.2974 31.5531 69.8037C31.0391 69.3643 29.9562 72.9813 29.827 73.3303C28.5429 76.7998 28.1307 80.1754 27.6023 83.7937C27.4597 84.7698 27.2214 87.1249 26.9118 84.685C26.6264 82.4362 26.124 80.24 25.6844 78.0194C25.4882 77.0284 25.5243 74.6631 24.8405 73.8341C24.3243 73.2082 23.0664 80.7545 22.9993 81.3522C22.7591 83.4933 22.6862 85.8294 22.9226 87.979C23.0293 88.9491 23.4928 89.8789 23.5363 90.8468C23.55 91.1508 23.7014 92.7921 23.4596 92.9007C23.249 92.9953 22.5998 87.617 22.5774 87.2815C22.3692 84.1691 22.5243 80.7798 21.1198 77.9419" stroke="#AD5E5E" stroke-linecap="round"/>
<path d="M49 54.3918C47.5233 54.0251 46.0872 52.0055 45.0805 50.9805C42.2009 48.0485 38.7688 45.4042 35.2996 43.1934C33.2084 41.8608 31.3501 40.5944 29.4203 39.1034C28.5401 38.4234 27.3722 37.9644 26.3458 37.4245C24.7507 36.5857 29.1534 33.9054 29.8338 33.3524C30.8817 32.5007 33.1466 30.4167 34.4366 31.4235C36.2755 32.8588 37.6961 35.8721 38.9494 37.8175C40.5477 40.2982 42.2967 42.7029 43.8039 45.2295C45.2167 47.5978 47.4078 50.0245 48.3527 52.6058C49.1567 54.8019 46.9879 51.1239 46.4109 50.534C45.7963 49.9054 45.1524 49.2837 44.2174 49.248C43.1249 49.2063 43.1746 49.1419 43.1746 47.9621C43.1746 47.1966 43.6296 44.5681 43.1027 43.9793C42.3107 43.0942 38.8152 45.2458 38.6797 44.6401C38.4596 43.656 39.3893 40.0863 37.4931 40.7644C36.1868 41.2316 34.4072 43.4424 34.94 40.8716C35.115 40.0272 36.5434 37.5051 35.2636 38.5319C34.3131 39.2945 33.3053 39.892 32.261 40.5144C31.4759 40.9823 32.3329 39.4655 32.4229 39.2106C32.8047 38.1289 35.2899 34.6555 32.9982 35.7457C31.446 36.4841 29.8326 37.1074 28.1977 37.6389C28.0272 37.6943 25.6282 38.6631 26.2379 37.6031C27.011 36.2592 29.1564 34.2326 30.553 33.5667C31.2606 33.2293 32.5886 33.4953 33.3938 33.4953C34.6201 33.4953 34.8119 33.4461 34.7602 34.7812C34.7107 36.0588 34.0448 37.3699 33.7893 38.639" stroke="#AD5E5E" stroke-linecap="round"/>
<path d="M60 53.3909C59.499 53.3909 58.9362 53.3088 58.5376 53.6292C58.3494 53.7805 58.0377 53.7264 57.851 53.9C57.7544 53.9898 57.4881 54.1541 57.3583 54.1709C57.1816 54.1937 57.0819 54.4126 56.9285 54.4579C56.7096 54.5226 56.4456 54.6134 56.2733 54.7559C55.9396 55.0317 55.5784 55.2523 55.2354 55.5358C54.8499 55.8546 54.8441 56.388 54.6432 56.8033C54.5391 57.0184 54.4135 57.2111 54.292 57.437C54.2064 57.5963 54.006 57.8408 53.967 58.022C53.8423 58.6017 53.4271 59.1752 53.3957 59.8257C53.3633 60.4944 53.0183 61.17 53.0183 61.8732C53.0183 62.6688 52.8296 63.4732 52.8296 64.2619C52.8296 64.9029 52.8296 65.5438 52.8296 66.1848C52.8296 67.0053 52.919 67.8922 53.1126 68.6926C53.2859 69.4088 53.3722 70.2338 53.7259 70.8917C53.8967 71.2094 53.9551 71.6662 54.1085 72.013C54.2507 72.3344 54.3863 72.7272 54.5069 73.0638C54.7281 73.6809 55.0625 74.4179 55.5185 74.8892C56.0958 75.4857 56.679 75.9812 57.2639 76.552C57.6856 76.9636 58.483 77.1412 58.7944 77.6678C58.9199 77.88 59.2585 78.0013 59.4811 78.0524C59.5797 78.0751 60.0845 78.3338 59.8585 78.2041C59.6345 78.0755 59.4233 77.9516 59.2243 77.787C59.0621 77.653 58.6631 77.7716 58.5114 77.6462C58.4197 77.5703 58.3797 77.5703 58.2546 77.5703C58.0644 77.5703 58.3819 77.7507 58.4433 77.8141C58.672 78.0505 58.9325 78.2333 59.1928 78.4045C59.4789 78.5926 59.5332 78.7714 59.198 78.502C58.9582 78.3092 58.5447 78.1429 58.2598 78.0091C56.9098 77.375 55.7735 76.4966 54.5278 75.6691C53.5113 74.9938 53.1707 73.4653 52.5465 72.4788C52.1159 71.7981 52.0616 70.9024 51.7498 70.1659C51.452 69.4625 51.1485 68.411 51.1313 67.6472C51.0873 65.6891 50.81 63.6111 51.2257 61.6782C51.4327 60.7155 52.02 59.8776 52.2845 58.9483C52.415 58.4896 52.774 57.8968 53.0707 57.5345C53.3648 57.1754 53.6025 56.6617 53.9618 56.37C54.7035 55.7678 55.3484 55.1161 56.2261 54.7342C56.8433 54.4656 57.4748 54.4332 58.113 54.2684" stroke="#AD5E5E" stroke-width="2" stroke-linecap="round"/>
<path d="M59.7175 77.2739C59.1702 77.2739 59.3314 75.7966 59.2993 75.4283C59.1746 73.9942 58.9441 72.5056 58.9252 71.0698C58.9202 70.6899 58.9362 70.3165 58.8316 69.9469C58.6798 69.4102 58.7371 71.0591 58.6831 71.6146C58.5921 72.5495 58.5607 73.5285 58.3749 74.4498C58.2873 74.8846 58.1387 75.631 57.8852 76.0009C57.7018 76.2685 57.6169 75.104 57.6156 75.0947C57.4442 73.943 57.2307 72.8061 57.0048 71.6647C56.8953 71.1117 56.8118 71.2435 56.6251 71.7592C56.3845 72.4237 56.1782 73.1014 55.9538 73.7716C55.9457 73.7959 55.4545 75.1483 55.3815 75.028C55.1522 74.6496 55.183 73.6579 55.1394 73.288C54.9434 71.6229 54.6913 69.9671 54.3911 68.318C54.3003 67.8189 54.2215 67.2942 54.094 66.8003C54.0374 66.5814 54.0719 67.2523 54.0719 67.4785C54.0719 68.5049 54.012 69.5506 54.0774 70.575C54.1406 71.5637 54.3952 68.617 54.4626 67.6286C54.5597 66.2066 54.5672 61.9281 54.5672 63.3536C54.5672 64.4358 54.5672 65.518 54.5672 66.6002C54.5672 67.145 54.5672 67.6898 54.5672 68.2346C54.5672 68.5082 54.5672 68.7981 54.5672 68.3124C54.5672 66.0947 54.6613 63.8563 54.5452 61.6413C54.4718 60.2423 54.4669 62.2494 54.4626 62.5364C54.4352 64.3907 54.2862 66.2583 54.3911 68.1123C54.453 69.2063 54.5745 68.2864 54.6222 67.7343C54.8782 64.7714 54.9634 61.796 54.9634 58.8228C54.9634 58.6875 54.9634 58.2817 54.9634 58.417C54.9634 59.1804 54.9673 59.944 54.9634 60.7074C54.9514 62.998 54.7653 65.2834 54.7653 67.5731C54.7653 67.7194 54.7617 68.1586 54.7653 68.0122C54.7934 66.8606 54.888 65.7129 54.9854 64.5655C55.1801 62.2698 55.9098 55.4124 55.9098 57.7165C55.9098 58.7448 55.7426 59.8048 55.6512 60.8241C55.4642 62.9098 55.3127 64.9951 55.2715 67.0894C55.2489 68.2344 55.104 71.6559 55.2825 70.525C55.6231 68.3662 55.8253 66.1833 56.1464 64.0207C56.2958 63.0147 56.4442 62.009 56.5866 61.002C56.5998 60.9085 56.6307 60.6302 56.6416 60.7241C56.6686 60.956 56.6471 61.191 56.6471 61.4245C56.6471 63.6501 56.6471 65.8756 56.6471 68.1012C56.6471 68.5579 56.6212 69.0289 56.6581 69.4854C56.6599 69.5079 56.7708 70.1722 56.8452 69.8245C57.3315 67.5525 57.426 65.1192 57.6376 62.8088C57.7785 61.2691 58.0228 59.677 58.0228 58.1279C58.0228 56.5973 57.5041 61.1452 57.3184 62.6642C57.0536 64.8316 56.584 67.2388 56.9002 69.4298C56.9271 69.616 57.0394 69.0769 57.0653 68.8906C57.2285 67.7192 57.4206 66.558 57.6596 65.3994C57.9349 64.0648 58.2489 62.7394 58.584 61.419C58.6218 61.2701 58.8199 60.4972 58.8811 60.2849C58.9101 60.1844 58.9559 59.9022 59.0022 59.9958C59.1225 60.2389 59.0242 61.0723 59.0242 61.2633C59.0242 62.5809 59.0242 63.8984 59.0242 65.2159C59.0242 66.4234 58.982 67.6191 58.9252 68.8239C58.871 69.9721 58.7144 66.5326 58.5235 65.3994C58.4698 65.0805 58.4277 64.5779 58.2539 64.2875C57.996 63.8568 58.1232 65.2863 58.0888 65.7885C58.0014 67.0633 57.8519 68.3404 57.5881 69.5911C57.3022 70.946 57.34 69.346 57.3625 68.8572C57.4905 66.0707 58.1964 63.3474 58.463 60.574C58.5469 59.7006 58.7754 58.6825 58.507 57.8388C58.3139 57.2321 58.2638 56.6205 58.4795 56.0154C58.6216 55.6165 58.7881 55.3901 59.0737 55.1593C59.2196 55.0414 58.1556 55.0211 57.9897 55.1037C57.2127 55.4907 55.5153 56.3299 55.4586 57.3607C55.4118 58.2111 56.3827 57.1536 56.4876 56.8604C56.5328 56.7338 56.6982 55.7047 56.449 56.1933C56.2822 56.5204 55.918 57.3121 56.0694 57.6943C56.3231 58.3351 57.6714 57.2949 57.2414 56.8604" stroke="#AD5E5E" stroke-width="2" stroke-linecap="round"/>
<path d="M61.0875 53.1639C61.0875 53.7347 61.0875 54.3054 61.0875 54.8761C61.0875 55.4699 60.9053 56.0396 60.9053 56.6368C60.9053 57.1249 60.8598 57.5996 60.8598 58.0857C60.8598 58.3004 60.8598 58.5151 60.8598 58.7297C60.8598 58.9414 60.9509 59.1518 60.9509 59.3737C60.9509 59.6816 60.9964 59.9774 60.9964 60.2834C60.9964 60.4516 61.0485 60.7344 60.9863 60.8916C60.7792 61.4147 60.9053 62.1799 60.9053 62.7341C60.9053 64.0265 60.8143 65.3004 60.8143 66.5954C60.8143 67.721 60.8598 68.8543 60.8598 69.9737C60.8598 70.1524 60.9509 70.3127 60.9509 70.5052C60.9509 70.742 60.9509 70.9788 60.9509 71.2156C60.9509 71.8187 60.9509 72.4218 60.9509 73.0249C60.9509 73.5478 60.9755 74.0769 60.9509 74.5991C60.9398 74.8332 60.8598 75.0472 60.8598 75.289C60.8598 75.542 60.8598 75.795 60.8598 76.048C60.8598 76.4543 60.8143 76.8379 60.8143 77.2439C60.8143 77.5212 60.7517 77.9943 61.0419 78.1409" stroke="#AD5E5E" stroke-linecap="round"/>
<path d="M59.4294 53.8782C58.7181 53.8782 57.8463 54.2005 57.1961 54.4771C56.7513 54.6663 55.6583 54.6608 55.3351 55.069C54.978 55.5199 54.2916 55.5705 53.9427 56.1345C53.6686 56.5777 53.0019 56.882 52.6607 57.3253C52.2958 57.7992 51.9684 58.1706 51.675 58.7041C51.3835 59.2343 51.2366 60.0801 50.8685 60.5217C50.3777 61.1106 50.2482 62.174 50.2482 62.9034C50.2482 63.2027 50.1241 63.4982 50.1241 63.8435C50.1241 64.06 50.0619 64.7056 49.9725 64.909C49.7006 65.5269 49.876 66.4908 49.876 67.1653C49.876 67.8965 49.876 68.6277 49.876 69.3589C49.876 69.9289 50.2356 70.7718 50.4687 71.3018C50.7161 71.8641 50.7912 72.607 51.1856 73.1194C51.6727 73.7521 52.108 74.4343 52.6675 74.9996C53.2448 75.5828 53.8968 75.8059 54.5906 76.2183C54.8514 76.3733 55.1035 76.6519 55.4591 76.6918C55.5828 76.7057 56.3987 76.9382 56.4517 77.0052C56.5197 77.0911 57.225 77.4017 57.3822 77.437C57.7022 77.5088 57.9466 77.5693 58.3128 77.5693" stroke="#AD5E5E" stroke-width="3" stroke-linecap="round"/>
<path d="M59.4001 53.441C58.3365 53.441 57.3645 53.414 56.3847 53.8308C55.9246 54.0266 55.3743 54.1848 55.014 54.5489C54.6658 54.9007 54.0871 55.0259 53.6891 55.3387C52.8136 56.0266 51.9936 57.076 51.5417 58.1031C51.34 58.5617 50.9021 59.1558 50.9021 59.6674C50.9021 60.1678 50.3943 60.4792 50.3538 60.9906C50.3435 61.1217 50.2325 61.1009 50.1914 61.2163C50.1353 61.3736 50.1962 61.5411 50.1254 61.6984C50.0192 61.9343 49.9978 62.1585 49.9883 62.4165C49.9796 62.6552 49.7211 63.8182 49.4401 63.6679C49.0183 63.4423 49.48 62.0794 49.6431 61.7497C49.9811 61.0668 50.132 60.3346 50.4046 59.6264C50.592 59.1396 51.4573 57.8508 51.3031 58.3493C51.0975 59.0141 50.6844 59.6571 50.3335 60.2521C50.0608 60.7147 49.9435 61.1671 49.7548 61.6574C49.5308 62.2395 49.3253 62.8055 49.0746 63.3755C48.8444 63.8988 48.8004 64.5793 48.8004 65.145C48.8004 66.4703 48.7102 67.8923 49.4401 69.0634C49.7398 69.5444 49.8178 70.1662 50.1711 70.6123C50.4047 70.9074 50.5699 71.5291 50.7193 71.8689C50.9698 72.4382 51.2952 72.9601 51.5417 73.5204C51.5699 73.5844 51.8495 73.9701 51.7752 74.0076C51.4536 74.17 51.1752 73.4949 51.0848 73.2896C50.5578 72.0915 49.7752 70.9864 49.369 69.7096C49.2545 69.3497 49.0746 68.8671 49.0746 68.4941C49.0746 68.1902 49.0468 67.7425 48.9629 68.3043C48.7997 69.3966 49.0933 70.228 49.369 71.2585C49.5077 71.7772 49.8775 72.3318 50.1711 72.7767C50.4166 73.1487 50.5652 73.564 50.831 73.9358C51.2378 74.5048 51.6794 75.0105 52.222 75.459C52.8136 75.9481 53.4076 76.2578 54.0952 76.5617C54.7096 76.8333 55.4799 77.0746 56.1562 77.0746C56.6524 77.0746 57.143 77.3321 57.6183 77.4388C57.9681 77.5173 58.3108 77.8132 58.6691 77.8132" stroke="#AD5E5E" stroke-width="3" stroke-linecap="round"/>
<path d="M54.0332 76.0732C54.3329 76.5035 54.7513 76.9654 55.1368 77.325C55.497 77.6609 55.9185 77.6337 56.3342 77.8247C56.7724 78.0259 57.8184 78.2573 58.2499 77.9667" stroke="#AD5E5E" stroke-width="3" stroke-linecap="round"/>
<path d="M55.6259 54.9753C55.0688 54.9753 54.6587 55.2861 54.1745 55.4909C53.9158 55.6003 53.6797 55.7353 53.4262 55.8517C53.1855 55.9622 52.8353 55.9259 52.6211 56.0636C52.3318 56.2496 51.8034 56.2154 51.646 56.5734C51.5198 56.8601 51.0616 57.0553 50.9089 57.3467C50.7647 57.6219 50.4409 57.9456 50.2173 58.1715C49.9434 58.4482 49.7143 59.0221 49.605 59.4087C49.3843 60.1891 49.0109 60.9694 48.8963 61.7801C48.758 62.7579 48.4824 63.782 48.4824 64.77C48.4824 66.2035 48.7517 67.4313 48.9927 68.8311C49.166 69.838 49.7507 70.9871 50.1946 71.884C50.9552 73.421 51.8828 74.9194 53.5849 75.4926" stroke="#AD5E5E" stroke-width="3" stroke-linecap="round"/>
<path d="M61.4811 51.8877C61.4811 52.402 61.4187 52.8783 61.4187 53.388C61.4187 53.8598 61.2539 54.4037 61.3597 54.8848C61.47 55.3863 61.4811 55.8433 61.4811 56.3676C61.4811 56.7618 61.6326 57.5182 61.4499 57.8504C61.2596 58.1965 61.4187 59.0637 61.4187 59.4594C61.4187 60.067 61.4187 60.6746 61.4187 61.2822C61.4187 62.6318 61.4187 63.9814 61.4187 65.331C61.4187 66.8542 61.6149 68.3415 61.6685 69.8564C61.6779 70.1231 61.6977 70.4228 61.665 70.6872C61.6446 70.8522 61.5436 70.9844 61.5436 71.1605C61.5436 71.2352 61.575 71.3972 61.5123 71.4479C61.4064 71.5335 61.4811 72.0485 61.4811 72.191C61.4811 72.5013 61.5436 72.7966 61.5436 73.1025C61.5436 74.3784 61.5257 75.6629 61.4811 76.9234C61.4684 77.2829 61.3562 77.6268 61.3562 78.003C61.3562 78.3197 61.3562 78.6363 61.3562 78.953C61.3562 79.4589 61.3562 79.9649 61.3562 80.4708" stroke="#E2C09B" stroke-width="0.5" stroke-linecap="round"/>
<path d="M59.474 55.3848C59.4839 55.4748 59.5555 55.5718 59.5777 55.6643C59.6289 55.8773 59.6623 56.1033 59.6892 56.3205C59.7158 56.5358 59.7284 56.6978 59.6642 56.9068C59.4865 57.4855 59.4394 58.1712 59.4394 58.7745C59.4394 59.0191 59.4394 59.2637 59.4394 59.5083C59.4394 59.8755 59.3356 60.2375 59.3356 60.6111C59.3356 61.2418 59.3286 61.851 59.2241 62.471C59.1309 63.0247 58.9726 63.6475 59.0762 64.2124C59.2091 64.9377 59.0409 65.7209 58.9916 66.4431C58.895 67.859 58.9205 69.2878 58.9205 70.7104C58.9205 71.1019 58.934 71.4909 58.8859 71.8791C58.8383 72.264 58.6818 72.6394 58.6169 73.0245C58.5079 73.6713 58.6261 74.3088 58.6438 74.9543C58.6483 75.117 58.6577 75.3073 58.6861 75.4668C58.7078 75.5886 58.8802 75.2655 58.8936 75.2378C59.0285 74.959 59.1281 74.6369 59.1281 74.3253C59.1281 74.0953 59.1664 73.8681 59.1627 73.6341C59.1569 73.2804 59.0243 72.9335 59.0243 72.578C59.0243 72.2978 59.0243 72.0176 59.0243 71.7374C59.0243 71.3344 59.0935 70.9438 59.0935 70.5395C59.0935 70.4894 59.1093 70.2151 59.0589 70.4075C58.9773 70.7188 58.8808 71.0196 58.8341 71.3394C58.7318 72.0394 58.713 72.7719 58.713 73.4788C58.713 74.2062 58.713 74.9336 58.713 75.661C58.713 75.8035 58.6379 76.1425 58.8341 76.1425C58.9715 76.1425 58.9897 76.1457 58.9897 76.0027" stroke="#AD5E5E" stroke-width="3" stroke-linecap="round"/>
<path d="M60.7804 65.1536C60.7804 65.4283 60.7301 65.6799 60.7301 65.9595C60.7301 66.1022 60.7301 66.2449 60.7301 66.3876C60.7301 66.626 60.7034 66.567 60.7804 66.4128" stroke="#333333" stroke-width="2" stroke-linecap="round"/>
<path d="M61.6367 61.5774C61.6367 62.2142 61.8382 62.8223 61.8382 63.4634C61.8382 63.7281 61.7375 63.9572 61.7375 64.2218C61.7375 64.4652 61.7375 64.7087 61.7375 64.9521C61.7375 65.4381 61.7375 65.9241 61.7375 66.41C61.7375 66.6376 61.7375 66.8652 61.7375 67.0928C61.7375 67.1934 61.8172 67.586 61.8886 67.6217" stroke="#E2C09B" stroke-linecap="round"/>
<path d="M60.6006 66.8379C60.6006 66.9967 60.6958 67.1857 60.8738 67.1857" stroke="#333333" stroke-linecap="round"/>
<path d="M61.3955 67.3594C61.2108 67.3594 60.9896 67.2019 60.8614 67.0737C60.7856 66.9979 60.6747 66.9313 60.6116 66.8501C60.5389 66.7567 60.4637 66.6522 60.3895 66.5631C60.3081 66.4654 60.2977 66.2874 60.1976 66.1974C60.1284 66.1351 60.0805 66.2968 60.0789 66.3354C60.0756 66.4163 60.0812 66.1734 60.0789 66.0925C60.0758 65.9796 59.9739 65.8681 60.0596 65.7502C60.1231 65.663 60.1664 65.5639 60.228 65.4714" stroke="#333333" stroke-linecap="round"/>
<path d="M60.3027 66.018C60.3027 65.6926 60.3931 65.4926 60.576 65.2424C60.6579 65.1303 60.7936 65.0441 60.8934 64.9443C60.9782 64.8595 61.0231 64.7995 61.0231 64.6766C61.0231 64.6423 61.0993 64.5045 61.0356 64.54C60.9873 64.5667 60.938 64.6127 60.8989 64.6517" stroke="#333333" stroke-linecap="round"/>
<path d="M61.7188 63.981C61.7962 64.0326 61.7933 64.378 61.7933 64.4778C61.7933 64.572 61.843 64.6581 61.843 64.751C61.843 64.8049 61.843 64.8587 61.843 64.9125C61.843 65.0459 61.8015 64.7298 61.7988 64.7041C61.7874 64.5941 61.7684 64.4734 61.7684 64.366C61.7684 64.3163 61.7684 64.2666 61.7684 64.217C61.7684 64.1543 61.7933 64.3661 61.7933 64.3977C61.7933 64.5307 61.7684 64.6521 61.7684 64.7869C61.7684 64.9852 61.7436 65.2027 61.7436 65.4093C61.7436 65.5625 61.7436 65.7157 61.7436 65.8689C61.7436 65.9985 61.7933 66.117 61.7933 66.2471C61.7933 66.4936 61.7933 66.7402 61.7933 66.9868C61.7933 67.2243 61.843 67.4496 61.843 67.6879C61.843 67.7357 61.843 67.7835 61.843 67.8314C61.843 67.9317 61.8366 67.7227 61.8305 67.6948C61.8022 67.5645 61.7684 67.4172 61.7684 67.2849" stroke="#E2C09B" stroke-linecap="round"/>
<path d="M60.567 52.8547C60.567 52.6726 60.6268 52.5461 60.6268 52.3767C60.6268 52.1827 60.3294 52.2573 60.1787 52.2573C59.7395 52.2573 59.3003 52.2573 58.8611 52.2573C58.6406 52.2573 58.4894 52.2949 58.2837 52.3635C57.9942 52.4599 57.6868 52.4378 57.4041 52.5261C57.1568 52.6034 56.8221 52.6021 56.5645 52.6157C56.2839 52.6305 55.9186 52.736 55.6385 52.7982C55.3712 52.8576 55.1359 53.036 54.8619 53.0969C54.6195 53.1508 54.3305 53.3254 54.1151 53.4388C53.7275 53.6428 53.3522 53.8708 52.9502 54.0495C51.812 54.5553 50.9707 55.7 50.71 56.917" stroke="#AD5E5E" stroke-linecap="round"/>
<path d="M60.5671 78.4234C60.6958 78.4395 60.5888 79.0479 60.6733 79.1535C60.856 79.3819 60.1234 79.2597 60.0261 79.2597C59.6276 79.2597 59.3437 79.155 58.9674 79.034C58.6388 78.9284 58.1964 79.0002 57.9053 78.815C57.5631 78.5972 57.0756 78.6203 56.7105 78.4499C55.9805 78.1092 55.2705 77.9235 54.5931 77.4675C54.2275 77.2215 53.866 76.9175 53.5311 76.6312C53.2282 76.3723 53.0095 76.0205 52.7113 75.7683C52.1266 75.2735 51.8589 74.6984 51.7256 73.9429" stroke="#AD5E5E" stroke-linecap="round"/>
<path d="M7.92873 21.1463C8.68445 22.1277 10.4226 22.7555 11.0903 21.3945C12.1927 19.1474 10.8418 15.7514 9.9606 13.6495C9.44193 12.4124 7.39501 8.94133 7.94743 10.1641C8.71377 11.8602 9.89287 13.6202 11.1827 14.9453C11.5368 15.309 13.0516 16.799 13.645 16.2679C14.4145 15.5794 12.7567 13.5131 12.2675 13.1322C10.8316 12.0142 9.15873 13.0399 8.36288 14.3618C7.70439 15.4555 8.23846 17.3206 9.53953 17.7831C10.3191 18.0602 11.1644 16.9661 11.4801 16.3979C12.0816 15.3149 12.2219 13.949 12.2995 12.7057C12.3462 11.957 12.4125 12.4831 12.564 12.8711C12.771 13.4011 12.9377 14.0796 13.3302 14.5094C13.6818 14.8942 14.7112 15.8247 15.149 15.1273C16.0415 13.7057 13.8185 10.6882 13.0134 9.59476C11.7941 7.93869 15.026 13.3641 16.6702 14.5639C17.4641 15.1433 17.1478 14.0547 17.0429 13.5828C16.6922 12.0047 15.998 10.5557 15.2658 9.11995C14.8957 8.3942 15.2479 9.08495 15.3903 9.36409C15.9074 10.378 16.4537 11.4285 17.3249 12.1791C17.9418 12.7106 17.814 11.9723 17.7844 11.4906C17.7721 11.2893 17.5571 9.9664 17.7081 10.2403C17.7697 10.3522 18.4041 11.5208 18.5565 11.3605C18.9118 10.987 18.1918 8.98334 18.0792 8.54948C17.8878 7.81235 17.531 6.95825 18.1369 8.14644C18.6134 9.08071 19.0587 10.2614 19.9542 10.8674C20.0275 10.917 20.2596 10.9289 20.2106 10.8539C19.9436 10.4445 19.4243 10.2141 19.0061 10.0545C16.324 9.03047 13.5567 9.74585 11.0749 10.7665C10.7864 10.8852 9.99168 11.127 10.2831 11.2656C10.9561 11.5856 12.7723 10.6883 13.2584 10.5099C16.5283 9.31039 19.6794 7.81766 22.8105 6.30498" stroke="#AD5E5E" stroke-width="0.5" stroke-linecap="round"/>
</svg>
