<svg width="157" height="142" viewBox="0 0 157 142" fill="none" xmlns="http://www.w3.org/2000/svg">
<path d="M3.16016 71C3.16016 33.1685 33.8286 2.5 71.6601 2.5H85.8803C123.712 2.5 154.38 33.1685 154.38 71C154.38 108.831 123.712 139.5 85.8803 139.5H71.6601C33.8286 139.5 3.16016 108.831 3.16016 71Z" fill="#EDD0C7" stroke="#AD5E5E" stroke-width="5"/>
<path d="M49.9472 54.0292C49.9472 61.0274 49.7017 68.2949 50.5098 75.2446C50.8276 77.9774 50.757 80.2596 52.2187 82.7262C54.552 86.6636 59.5259 89.5858 63.2224 92.0835C65.6291 93.7097 68.0741 95.2517 70.7457 96.3766C72.3562 97.0547 73.1157 97.5436 74.8721 97.5436C76.3051 97.5436 77.8024 97.4219 79.2277 97.5645C82.3066 97.8724 84.5928 98.7375 86.5426 96.2307C88.548 93.6523 90.5386 90.6674 92.2528 87.8738C94.3587 84.442 95.2653 81.7505 95.3372 77.8704C95.4239 73.1905 96.8377 68.6216 96.8377 63.8658C96.8377 60.3646 96.8377 56.8635 96.8377 53.3623C96.8377 51.2415 97.1276 48.8968 96.4626 46.9019" stroke="black" stroke-width="2" stroke-linecap="round"/>
<path d="M61.9504 48.7776C62.092 50.0519 67.0755 51.3667 68.3276 51.4035C71.5745 51.499 74.9576 51.1334 77.9974 49.903C80.5786 48.8582 82.4593 46.7904 84.833 45.4849C87.8584 43.8209 90.8088 43.901 94.2111 43.901C98.6994 43.901 103.069 47.236 106.403 49.903C108.391 51.4935 106.431 51.1168 105.652 49.7154C104.795 48.1716 103.344 47.6564 102.089 46.5269C101.14 45.6733 98.4014 44.6984 97.1288 44.6513C94.8878 44.5683 92.6972 43.901 90.4599 43.901C87.0995 43.901 84.4301 45.1669 81.6445 46.7144C76.1209 49.7831 67.0438 52.0745 61.2002 49.1527" stroke="black" stroke-width="2" stroke-linecap="round"/>
<path d="M106.216 51.4036C106.216 54.2445 100.235 55.1548 97.9629 55.1548" stroke="black" stroke-width="2" stroke-linecap="round"/>
<path d="M59.3254 48.7773C57.3559 49.8715 55.7555 51.4906 53.7819 52.6119C52.4798 53.3518 51.1823 53.956 49.9473 54.7793" stroke="black" stroke-width="2" stroke-linecap="round"/>
<path d="M49.5714 53.279C48.38 49.4068 49.3097 43.0965 51.2595 39.5869C51.8448 38.5334 52.3153 36.5324 53.3227 35.9399C54.3002 35.3649 55.4036 33.8092 55.9486 32.8555C58.6132 28.1924 65.8582 26.27 70.8702 26.27C76.726 26.27 81.6958 26.729 86.8755 29.0835C88.8927 30.0004 91.7844 32.8785 92.7941 34.8979C94.1438 37.5973 94.9615 39.6273 94.9615 42.7755" stroke="black" stroke-width="2" stroke-linecap="round"/>
<path d="M84.8336 62.6572C85.0178 66.1566 85.2088 69.6333 85.2088 73.1607C85.2088 75.4665 81.6806 75.0363 79.957 75.0363" stroke="black" stroke-width="2" stroke-linecap="round"/>
<path d="M68.7031 66.0332H69.8285" stroke="black" stroke-width="2" stroke-linecap="round"/>
<path d="M90.085 65.6582H91.2103" stroke="black" stroke-width="2" stroke-linecap="round"/>
<path d="M76.5801 84.4144C78.0843 83.7459 83.5157 84.4229 84.0826 83.2891" stroke="black" stroke-width="2" stroke-linecap="round"/>
<path d="M53.6982 87.7903C54.6358 91.1889 53.7612 94.8574 54.4485 98.2938" stroke="black" stroke-width="2" stroke-linecap="round"/>
<path d="M85.209 97.5439V101.67" stroke="black" stroke-width="2" stroke-linecap="round"/>
<path d="M56.3244 102.42C56.3244 109.104 63.4037 109.544 68.6618 110.465C73.5886 111.327 78.212 110.751 81.7495 107.214C82.2415 106.721 82.3392 105.162 82.9582 105.046C83.4494 104.954 83.965 103.117 84.1044 102.629C84.2529 102.109 84.917 102.567 84.7504 103.087C84.5762 103.632 83.9127 104.092 83.5209 104.483C82.4487 105.556 81.3226 106.97 79.9572 107.672C74.8335 110.307 68.1244 110.883 62.7015 108.714C57.8808 106.786 54.5407 103.071 52.9482 98.2939" stroke="black" stroke-width="2" stroke-linecap="round"/>
<path d="M53.6982 115.925C63.2086 115.925 72.6611 114.424 82.2077 114.424C84.2084 114.424 86.209 114.424 88.2097 114.424" stroke="black" stroke-width="2" stroke-linecap="round"/>
<path d="M54.4482 122.677C61.6723 122.559 68.7547 120.802 76.0387 120.802C79.4704 120.802 82.9021 120.802 86.3338 120.802" stroke="black" stroke-width="2" stroke-linecap="round"/>
<path d="M58.5752 128.304C66.2961 126.373 74.0241 126.053 81.9579 126.053C83.2158 126.053 84.9092 126.378 85.9593 125.678" stroke="black" stroke-width="2" stroke-linecap="round"/>
<path d="M53.3229 100.92C53.3229 105.421 53.3229 109.923 53.3229 114.424C53.3229 116.062 52.7653 118.816 53.5313 120.239C54.5209 122.076 55.3528 124.382 56.0321 126.345C56.9332 128.948 59.0036 131.382 60.9087 133.097C61.7698 133.872 63.3253 134.491 63.8264 135.619C64.2651 136.606 65.3976 138.081 66.4523 138.432" stroke="black" stroke-width="2" stroke-linecap="round"/>
<path d="M85.5841 104.296C88.5782 110.617 88.6281 119.446 86.7929 126.053C85.4663 130.829 83.7225 135.389 82.208 139.933" stroke="black" stroke-width="2" stroke-linecap="round"/>
<path d="M64.2021 134.306C70.4477 132.521 76.8894 132.055 83.3335 132.055" stroke="black" stroke-width="2" stroke-linecap="round"/>
<path d="M51.4471 97.9189C50.0342 100.588 47.3422 103.509 44.9033 105.338C43.8376 106.137 41.5141 108.642 40.1934 108.798C39.0446 108.933 38.0511 110.807 37.1091 111.423C35.6731 112.362 34.7112 112.989 34.0247 114.591C33.7168 115.31 47.2791 115.456 47.2791 117.113C47.2791 118.609 43.5124 122.68 45.862 123.594C47.9814 124.418 50.9906 123.248 52.9476 124.553" stroke="black" stroke-width="2" stroke-linecap="round"/>
<path d="M86.334 99.0439C87.6981 99.0439 89.16 101.208 90.1686 102.045C91.8188 103.414 93.0854 104.955 94.8785 106.171C95.7902 106.79 97.4103 107.161 98.1296 107.88C99.1424 108.893 100.484 109.257 101.672 110.089C101.856 110.218 96.3043 111.254 95.4203 111.506C93.4076 112.081 92.0308 112.469 94.1282 113.841C95.1985 114.54 96.2609 116.249 96.8375 117.258C98.6667 120.459 89.6834 121.31 87.8345 121.927" stroke="black" stroke-width="2" stroke-linecap="round"/>
<path d="M99.0879 109.923C101.292 109.923 103.061 110.204 105.111 111.048C106.939 111.801 108.881 111.654 110.55 112.715C112.216 113.776 114.881 113.797 116.719 114.716C119.697 116.205 122.346 121.154 122.346 124.553" stroke="black" stroke-width="2" stroke-linecap="round"/>
<path d="M37.943 110.673C36.3841 110.985 34.2667 112.641 32.8579 113.487C31.1816 114.492 29.4222 115.079 27.8146 116.112C26.0222 117.265 25.5222 118.426 24.4385 120.051" stroke="black" stroke-width="2" stroke-linecap="round"/>
<path d="M49.1964 65.658C49.1964 64.6855 48.5934 61.8684 47.4875 61.5524C46.0233 61.1341 45.4451 66.2328 45.4451 67.0751C45.4451 71.0277 43.755 77.2868 49.5715 77.2868" stroke="black" stroke-width="2" stroke-linecap="round"/>
<path d="M60.0996 47.5549C61.1301 46.6961 62.6041 46.4432 63.7695 45.7546C65.0099 45.0216 66.5214 44.5581 67.8894 44.1274C71.1757 43.0928 75.185 42.2006 78.6221 41.9635C84.0637 41.5882 89.5349 41.6346 94.998 41.6346" stroke="black" stroke-linecap="round"/>
<path d="M61.3457 29.4824C60.4117 34.2561 60.7225 39.209 60.7225 44.058C60.7225 45.0163 61.0836 47.1122 61.9688 47.5548" stroke="black" stroke-linecap="round"/>
<path d="M61.6562 30.7285C61.6562 35.0962 61.9678 39.4458 61.9678 43.8154" stroke="black" stroke-linecap="round"/>
<path d="M62.5918 62.8226C65.7903 61.6854 69.4862 61.2646 72.8744 61.2646" stroke="black" stroke-linecap="round"/>
<path d="M89.3887 61.5763C89.5753 60.8296 92.8637 61.2647 93.751 61.2647" stroke="black" stroke-linecap="round"/>
<path d="M57.2952 51.9168C56.9587 53.7676 52.0861 56.7887 53.9369 56.4522C55.1242 56.2364 57.0226 53.8614 57.676 52.8516C57.9864 52.3719 58.7335 52.0096 59.1648 51.6052C61.076 49.8135 55.3739 55.223 53.5215 57.0754C53.4105 57.1864 52.266 58.5105 53.1406 57.941C54.3311 57.1658 55.1339 55.9679 55.9796 54.8597C57.2854 53.1486 53.483 56.4432 53.0021 56.7638C52.5339 57.076 53.5718 55.7902 53.7984 55.2751C54.0521 54.6985 55.2059 54.462 54.9756 54.7212C52.3251 57.7029 56.6754 53.7558 56.672 53.7864C56.5086 55.2571 52.9625 58.3968 53.9369 57.2832C54.4111 56.7412 55.1501 55.8201 54.7332 55.0328C54.1357 53.9042 52.7302 55.9209 52.5521 56.3484C52.0578 57.5347 51.6104 61.3115 52.2405 60.1913C52.7586 59.2702 53.2766 58.1171 54.2485 57.5255C54.8099 57.1838 53.6231 60.6579 53.1753 61.1954C52.5631 61.93 52.9329 64.0055 52.9329 65.0037C52.9329 66.7925 52.9329 68.5813 52.9329 70.37C52.9329 72.3643 53.5561 74.2799 53.5561 76.2211C53.5561 76.7847 53.8677 78.4465 53.8677 77.8829C53.8677 75.8356 53.2764 73.833 53.2445 71.7895C53.2058 69.3111 54.0014 65.1959 53.0021 62.8226C52.7032 62.1126 52.9329 61.0872 52.9329 62.7533C52.9329 64.463 52.9773 66.0568 53.3137 67.7388C53.8227 70.2834 54.0033 72.8919 54.7332 75.3555C54.9857 76.2078 54.5129 77.2833 54.8717 78.0906C55.1261 78.663 55.4256 79.3254 55.4256 79.9602" stroke="black" stroke-linecap="round"/>
<path d="M55.4253 77.4678C55.7774 77.5684 55.1686 78.545 55.0964 78.8699C54.937 79.5873 55.2119 78.5512 55.5811 78.2641C56.6682 77.4185 54.1763 80.3083 53.6942 80.5837C52.9254 81.023 54.7481 79.6559 55.0964 79.1988C56.3725 77.524 54.611 81.3123 54.3694 81.7954C53.7867 82.9609 56.6349 80.3019 57.0871 80.0124C58.3636 79.1955 57.973 79.939 57.2776 80.8953C56.7503 81.6203 54.3546 85.1617 56.3774 82.886C56.8221 82.3857 58.9876 79.2603 58.3508 81.2415C58.1117 81.9855 56.0366 85.1823 56.4293 84.8768C57.5039 84.041 58.3452 83.0304 59.0952 81.8993C59.1877 81.7598 60.3762 80.0726 60.3762 80.1856C60.3762 81.8845 58.6301 83.8794 57.7796 85.2403C57.6408 85.4623 56.7394 86.7644 57.5718 85.9154C58.7383 84.7256 59.6664 83.3637 60.6878 82.0551C63.1405 78.9126 61.1309 83.6652 60.5666 84.7729C60.1098 85.6695 57.5187 89.5264 60.0127 87.3695C61.3112 86.2464 62.5527 85.0471 63.6998 83.7689C63.7907 83.6676 65.0496 82.0427 64.8943 82.5398C64.1521 84.9149 62.9041 87.1184 61.6918 89.2737C61.1621 90.2154 60.9449 90.2899 61.5533 89.2391C62.445 87.6988 63.7437 86.3449 64.8943 84.9979C65.1089 84.7467 66.5766 82.6972 67.1274 82.9726C67.594 83.2059 66.7122 85.1817 66.608 85.4307C66.0271 86.8184 63.5089 89.4271 63.8556 90.9874C63.9169 91.2631 68.9834 85.6772 69.4124 85.171C70.4741 83.9182 72.4617 81.1105 71.1088 84.3574C70.0901 86.8024 68.5108 89.1911 67.1274 91.4548C66.5981 92.3209 66.9149 91.4359 67.162 91.0394C68.0432 89.6253 69.0597 88.3254 69.8798 86.8675C71.784 83.4822 71.0691 86.5001 70.0356 88.235C69.6219 88.9294 66.4888 94.0305 69.1873 91.8876C69.7284 91.4579 74.3069 86.6772 73.9131 88.4774C73.8138 88.9315 71.8969 93.6296 72.1475 93.584C72.9765 93.4333 76.9558 87.8763 77.1502 88.2004C77.824 89.3233 74.7305 93.4342 74.3286 94.64C73.5944 96.8427 76.4713 90.5019 77.8254 88.6159C79.7917 85.8771 78.1454 91.0957 77.9292 92.0434C77.6906 93.0897 76.4486 96.9545 78.4832 94.5361C79.8772 92.8791 81.7314 90.0603 81.9107 87.8196C82.0727 85.7949 81.879 91.8821 81.9107 93.9129C81.9262 94.9042 82.1825 94.9583 82.707 94.0341C83.5708 92.5122 84.1698 90.7991 84.8881 89.2044C85.0751 88.7894 85.7144 86.481 85.6325 88.2004C85.5581 89.7629 85.2703 91.2889 85.0959 92.8397C84.7692 95.7438 85.7918 92.2466 86.0306 91.351C86.4566 89.7537 86.9617 88.1815 87.3463 86.5732C87.4611 86.0929 87.8928 84.3915 88.0733 85.9154C88.2372 87.2992 88.1892 88.7797 87.9867 90.1565C87.8412 91.1461 87.7942 90.9405 87.9002 90.1046C88.0361 89.0323 88.5251 83.1869 89.9429 82.9033C90.7822 82.7355 88.713 93.5008 91.1892 83.5958C91.4146 82.6944 91.3714 81.5557 91.7259 80.7049C91.808 80.5078 91.8653 81.7653 91.8124 82.0032C91.4763 83.5159 91.346 81.5554 91.1892 81.2069C90.931 80.6331 90.0319 79.9168 89.4582 79.7182C87.852 79.1622 87.129 81.466 86.6538 82.5571C85.7701 84.5864 86.273 81.4182 86.273 80.5837C86.273 78.8664 86.6967 78.7872 85.8922 79.9605C84.8306 81.5086 85.0486 80.703 85.0266 79.095C84.9929 76.6346 83.5897 80.0091 82.9147 80.5491C82.3976 80.9628 82.7007 78.3418 82.153 78.7141C81.7569 78.9835 81.0408 80.4974 80.9759 79.7182C80.8226 77.879 79.5272 80.5168 79.3487 80.8953C78.0149 83.723 79.2385 79.8239 78.0331 79.7874C77.1322 79.7601 76.302 82.766 76.302 81.8647C76.302 80.4238 76.2772 79.6738 75.0557 80.8953C74.3165 81.6344 74.163 82.4721 74.1209 81.2069C74.0996 80.5697 72.8555 83.5076 72.3206 83.5611C72.2457 83.5686 72.3165 81.4821 71.8012 81.7262C70.7268 82.2351 70.5245 83.6865 69.447 84.2536C68.4006 84.8043 68.1822 84.0842 67.1966 84.0112C66.5611 83.9641 65.8486 84.7751 65.7079 84.6344" stroke="black" stroke-linecap="round"/>
<path d="M105.825 51.2852C105.155 52.3807 103.833 52.9892 102.838 53.7582C101.484 54.8048 102.423 52.5968 102.645 52.0078C103.258 50.3874 103.79 49.2059 102.067 50.9961C101.598 51.4842 100.515 53.8393 100.638 52.1202C100.728 50.8599 101.457 49.6289 101.457 48.3786C101.457 46.8312 100.42 51.3359 99.53 52.6019C98.7012 53.7814 99.1767 50.6931 99.1767 50.1129C99.1767 49.6894 99.5408 47.201 98.8877 47.5275" stroke="black" stroke-linecap="round"/>
<path d="M82.0342 50.1342C82.1472 48.2136 89.944 40.8985 89.1446 46.2946C88.8522 48.2681 85.8085 51.3331 88.8033 48.8828C89.3626 48.4252 94.8221 43.6326 93.4962 46.579C93.0615 47.5449 89.2903 52.396 92.3301 50.3333C92.9562 49.9085 98.5267 45.7068 97.0514 48.5983C96.2689 50.1321 93.0626 53.2177 96.3688 50.6462C98.9335 48.6514 97.3993 50.3935 98.9285 51.1581" stroke="black" stroke-linecap="round"/>
<path d="M61.5557 51.1582C61.7899 51.2051 60.2351 52.0628 60.0198 52.239C58.924 53.1356 57.7786 54.1389 56.7774 55.14C54.7748 57.1427 59.3321 55.3515 59.906 55.0263C60.7257 54.5618 64.17 51.4785 61.7263 53.4335C59.3118 55.3651 51.8962 60.2133 54.9572 59.776C56.4098 59.5685 59.7687 56.432 58.6546 57.3869C56.922 58.872 54.5289 61.0519 53.6489 63.189C53.1119 64.493 53.345 65.9588 52.8525 67.3131C52.2956 68.8446 51.1952 70.0743 50.8047 71.6362" stroke="black" stroke-linecap="round"/>
<path d="M67.6991 139.726C71.6346 138.461 75.3623 137.678 79.4739 137.678C81.7194 137.678 83.0298 137.678 79.9574 137.678C76.6298 137.678 73.3021 137.678 69.9744 137.678C69.5503 137.678 66.8154 138.19 67.8128 138.19C70.0692 138.19 72.3256 138.19 74.582 138.19C75.665 138.19 79.5597 138.19 79.3602 138.19C76.535 138.19 73.7097 138.19 70.8845 138.19C68.7132 138.19 65.337 139.214 69.7469 139.214C72.3871 139.214 77.7001 139.714 79.9859 138.19" stroke="black" stroke-linecap="round"/>
<path d="M93.268 131.961C97.6174 130.379 101.857 130.605 106.362 130.271C107.405 130.194 106.597 129.955 106.12 129.955C104.94 129.955 103.751 129.912 102.573 129.974C99.6359 130.128 96.5392 131.499 93.8623 132.63C93.5689 132.754 91.741 133.62 91.9308 133.633C92.2187 133.652 93.0397 133.249 93.1937 133.373C93.5844 133.685 93.4985 134.393 93.7881 134.766C94.0866 135.149 95.0734 134.97 95.4782 134.97C97.3847 134.97 99.221 134.636 101.124 134.636C102.39 134.636 105.851 134.663 106.306 133.298" stroke="black" stroke-linecap="round"/>
</svg>
