<svg width="157" height="142" viewBox="0 0 157 142" fill="none" xmlns="http://www.w3.org/2000/svg">
<path d="M71 2.5H85.2202C123.052 2.5 153.72 33.1685 153.72 71C153.72 108.831 123.052 139.5 85.2202 139.5H71C33.1685 139.5 2.5 108.831 2.5 71C2.5 33.1685 33.1685 2.5 71 2.5Z" fill="#EDD0C7" stroke="#AD5F5F" stroke-width="5"/>
<path d="M59.8099 84.834C57.7746 72.622 59.2316 58.7619 59.2316 46.2225C63.8184 43.1647 69.6098 40.0991 75.2885 40.0991H89.5084C92.1829 40.0991 94.8299 41.3238 97.4689 41.3238C99.5903 41.3238 103.18 42.9208 105.157 43.9092C108.021 45.341 106.994 46.135 106.994 48.6719C106.994 52.5468 105.769 56.1412 105.769 60.0002V81.7042C105.769 83.7768 106.975 88.1423 105.157 88.9503C99.9906 91.2465 95.3986 94.3927 91.0733 98.2374C88.5198 100.507 86.4644 101.333 83.1129 101.333C81.8528 101.333 78.0998 101.976 77.1256 101.197C71.3872 96.6064 61.156 92.9102 59.8099 84.834Z" stroke="black" stroke-width="2" stroke-linecap="round"/>
<path d="M58.6207 46.2224C58.6207 44.11 58.0472 36.4903 60.1856 35.2683C61.7152 34.3943 60.4096 40.5568 63.6555 35.5405C65.0732 33.3494 66.635 31.3283 68.146 29.213C69.2695 27.64 69.6933 30.8803 69.915 31.7984C70.1889 32.9333 70.0993 36.4251 71.3438 33.5674C72.4453 31.038 72.7905 27.2219 74.8137 25.1988C75.2894 24.723 74.0659 33.5757 76.5146 28.3285C76.8513 27.6071 79.3951 22.3533 79.7464 24.1101C80.3111 26.9337 79.3199 30.2524 80.1887 32.9551C80.5556 34.0967 83.5409 26.319 83.6926 27.0018C84.533 30.7833 83.8289 35.3699 86.7883 28.4646C86.8917 28.2235 88.7113 23.6638 89.5099 24.3483C90.7715 25.4297 89.8157 30.7618 89.85 32.3427C89.891 34.2246 90.8595 32.5083 91.2108 31.7304C92.3443 29.2204 93.4424 24.644 95.6333 22.8514C97.1566 21.6051 95.6427 37.3426 98.2867 30.5737C100.96 23.7289 99.871 36.2263 100.532 36.1528C103.992 35.7684 104.969 25.999 106.077 33.9756C106.213 34.9564 105.801 39.3241 106.519 39.963C106.934 40.3317 108.079 36.7972 108.492 36.5611C109.549 35.9573 106.875 45.9185 108.356 39.1465C108.621 37.9352 106.383 45.7066 106.383 42.5484" stroke="black" stroke-width="2" stroke-linecap="round"/>
<path d="M106.382 46.2224C106.382 49.3588 107.61 39.9087 106.995 36.8332C106.815 35.9367 106.06 38.4055 105.634 39.2145C104.959 40.4969 105.158 38.6596 105.158 38.1939C105.158 37.7336 105.291 34.1072 104.749 34.4519C103.133 35.4807 101.69 37.4296 100.667 39.0104C100.22 39.7006 101.209 28.6335 100.123 29.9614C98.0815 32.4562 96.7209 36.1556 96.5848 31.5262C96.4833 28.077 93.335 33.17 92.9447 34.1457C92.4772 35.3145 92.9664 31.6253 92.8767 30.3696C92.7922 29.1861 91.9196 27.3544 90.4954 28.6006C89.5292 29.446 88.4872 31.4274 88.08 32.6489C88.0717 32.6739 87.1473 28.5424 86.6512 27.512C84.5007 23.0456 83.1985 29.2587 83.1133 31.3902C83.0884 32.0129 82.4674 28.8619 82.2288 28.3285C81.5956 26.9132 79.6688 22.8599 77.6362 24.8925C76.3637 26.1651 75.9554 28.5151 75.7992 30.2335C75.6425 31.9574 75.9875 31.9191 75.357 30.1995C73.424 24.9278 71.4788 25.8585 71.4788 30.7778C71.4788 30.9294 70.3547 25.0609 68.4171 25.4028C66.2572 25.784 69.3438 35.9537 67.5326 29.4851C66.5927 26.1282 67.1924 32.9505 67.1924 34.1797C67.1924 34.9281 67.1924 32.6829 67.1924 31.9345C67.1924 30.564 67.1924 32.4059 67.1924 32.7509" stroke="black" stroke-width="2" stroke-linecap="round"/>
<path d="M84.3379 58.4692C85.3338 60.5856 84.73 62.8651 85.5626 65.0689C86.3364 67.1172 86.2798 71.7269 88.3181 72.8592C90.7573 74.2143 85.5154 75.6148 84.3379 75.6148" stroke="black" stroke-width="2" stroke-linecap="round"/>
<path d="M69.0293 64.5928C69.1664 63.4963 71.7978 63.9805 72.7033 63.9805" stroke="black" stroke-width="2" stroke-linecap="round"/>
<path d="M93.5234 63.9805C94.0741 63.9805 99.398 63.3408 97.4696 62.7899C96.2796 62.4499 91.9818 63.3682 94.7481 63.3682" stroke="black" stroke-width="2" stroke-linecap="round"/>
<path d="M68.418 65.2051C68.418 68.8023 72.6378 64.5928 73.3167 64.5928" stroke="black" stroke-width="2" stroke-linecap="round"/>
<path d="M78.2148 84.1877H88.0123" stroke="black" stroke-width="2" stroke-linecap="round"/>
<path d="M61.6817 94.5977C60.7115 95.6891 60.457 96.8644 60.457 98.2717" stroke="black" stroke-width="2" stroke-linecap="round"/>
<path d="M62.2925 93.3726C62.2307 95.0432 60.0956 98.5621 61.34 98.9176C62.703 99.3071 64.7031 100.635 66.2727 101.333C71.2424 103.542 75.8913 103.819 81.3091 104.361C85.6171 104.791 89.9519 104.12 93.9981 103.782C95.7113 103.64 95.3155 100.191 95.3589 99.0197C95.41 97.6387 96.6165 95.7561 97.1959 94.5972" stroke="black" stroke-width="2" stroke-linecap="round"/>
<path d="M58.6192 85.4126C54.66 85.4126 50.7751 87.2496 46.6786 87.2496C39.6258 87.2496 52.3075 95.8427 53.3803 97.013C56.492 100.408 60.9623 102.78 64.2663 105.484C65.0882 106.156 69.6743 106.232 70.866 106.232C73.1112 106.232 75.3565 106.232 77.6017 106.232" stroke="black" stroke-width="2" stroke-linecap="round"/>
<path d="M43.9239 89.6987C43.9239 94.076 42.6992 98.1585 42.6992 102.558" stroke="black" stroke-width="2" stroke-linecap="round"/>
<path d="M65.9688 58.4695C69.8112 58.4695 74.598 57.6348 78.2156 59.0818" stroke="black" stroke-width="2" stroke-linecap="round"/>
<path d="M89.2363 57.2449H100.258" stroke="black" stroke-width="2" stroke-linecap="round"/>
<path d="M37.1875 102.558C40.9891 102.558 43.654 102.176 46.6788 104.735C49.3182 106.968 52.8703 110.268 56.034 111.607C62.978 114.545 69.8613 115.541 76.7175 112.015C78.1063 111.301 79.5848 109.704 80.0173 112.083C80.5455 114.988 81.3634 114.445 83.4532 112.355C85.5711 110.237 84.95 120.174 84.95 122.153" stroke="black" stroke-width="2" stroke-linecap="round"/>
<path d="M95.9722 98.2715C95.9722 101.858 95.4902 105.62 99.6462 105.62C103.952 105.62 116.811 106.844 112.505 106.844" stroke="black" stroke-width="2" stroke-linecap="round"/>
<path d="M99.0352 94.5977C99.2792 97.0379 101.381 98.6149 101.485 101.197C101.526 102.236 104.129 102.147 105.022 102.422C106.332 102.825 107.955 102.508 109.309 102.558C112.152 102.663 113.992 105.852 116.759 106.198C119.456 106.535 122.346 107.457 125.06 107.457C127.346 107.457 130.813 110.476 132.714 111.743" stroke="black" stroke-width="2" stroke-linecap="round"/>
<path d="M35.3517 103.17C35.3517 104.035 35.1949 109.032 34.3992 109.26C31.9858 109.949 29.6916 110.737 27.2552 111.607C24.9327 112.437 22.2481 112.674 20.3494 114.193C19.3986 114.953 17.4692 116.092 16.3691 116.642" stroke="black" stroke-width="2" stroke-linecap="round"/>
<path d="M56.7829 60.3066C55.9064 60.1971 54.9446 59.054 54.1974 58.6057C52.9827 57.8769 53.1088 64.5705 53.1088 65.1713C53.1088 69.7942 52.4357 71.3287 57.3952 71.3287" stroke="black" stroke-width="2" stroke-linecap="round"/>
<path d="M130.646 112.568C132.251 112.668 133.632 119.886 133.632 122.122" stroke="black" stroke-width="2" stroke-linecap="round"/>
<path d="M90.6397 113.762C90.6397 118.457 88.4719 123.254 89.5781 128.093C90.4694 131.993 89.978 136.259 91.2368 140.036" stroke="black" stroke-width="2" stroke-linecap="round"/>
<path d="M41.0781 113.762C42.9056 113.965 45.7695 117.79 46.7177 119.17C48.2659 121.422 49.64 123.065 52.4235 123.781C55.4755 124.565 59.1068 125.82 61.3804 128.093C62.5279 129.241 62.8685 132.42 63.7689 132.87" stroke="black" stroke-width="2" stroke-linecap="round"/>
</svg>
