<svg width="157" height="142" viewBox="0 0 157 142" fill="none" xmlns="http://www.w3.org/2000/svg">
<path d="M71 2.5H85.2202C123.052 2.5 153.72 33.1685 153.72 71C153.72 108.831 123.052 139.5 85.2202 139.5H71C33.1685 139.5 2.5 108.831 2.5 71C2.5 33.1685 33.1685 2.5 71 2.5Z" fill="#EDD0C7" stroke="#AD5F5F" stroke-width="5"/>
<path d="M58.1198 62.7395C58.6294 55.0955 61.2871 46.918 67.0787 41.7055C71.6627 37.5799 79.3823 38.5186 85.1736 38.5186C93.4684 38.5186 96.6733 50.7768 98.7714 56.8613C100.901 63.038 98.5468 70.6213 101.781 76.4435C102.565 77.8544 102.737 81.8046 102.737 83.4548C102.737 86.3473 102.29 87.1463 101.108 89.5101C97.374 96.9792 85.4286 95.5032 79.1538 98.292C77.2496 99.1383 75.5991 99.9847 73.4173 99.673C70.1985 99.2132 67.4467 94.5646 64.4937 93.2991C60.8505 91.7377 55.0997 86.6967 54.9328 82.3571C54.8058 79.0552 52.0159 62.1021 56.845 62.1021" stroke="black" stroke-width="2" stroke-linecap="round"/>
<path d="M66.4062 78.0371C72.0097 78.0371 77.5966 79.9493 83.2972 79.9493C86.3231 79.9493 88.9919 78.6745 91.902 78.6745" stroke="black" stroke-width="2" stroke-linecap="round"/>
<path d="M67.043 79.3118C69.1153 83.2262 71.4145 84.4467 75.6478 85.367C80.8727 86.5029 83.0749 84.33 86.8022 81.224" stroke="black" stroke-width="2" stroke-linecap="round"/>
<path d="M75.966 65.2891C75.6148 69.1524 70.7606 71.663 76.6034 71.663" stroke="black" stroke-width="2" stroke-linecap="round"/>
<path d="M68.3181 60.19C66.2427 58.1146 61.1811 54.2641 58.1198 57.0031C52.4017 62.1192 55.1128 69.1136 62.7232 69.1136C65.6293 69.1136 68.1913 69.7209 68.3181 66.4223C68.3871 64.6303 70.4442 60.3355 67.6807 60.19C65.2434 60.0617 63.6812 58.2778 61.3068 58.2778C58.3397 58.2778 56.6258 63.2703 58.5093 65.5725C60.7557 68.318 64.4938 66.3399 64.4938 63.3416C64.4938 57.6154 59.2079 60.9382 58.8634 64.8997C58.7045 66.7277 61.4589 67.9362 62.8295 66.7764C63.5038 66.2058 64.5668 61.0399 63.4668 61.0399C59.8134 61.0399 61.6431 69.999 63.5023 65.2184C66.3725 57.8378 59.8209 63.9321 62.9003 64.6164C67.1728 65.5658 63.1551 59.9025 63.9272 63.377C64.183 64.5279 65.7686 67.3348 65.7686 64.6872C65.7686 63.0511 65.6046 62.8573 65.804 64.6518C65.9221 65.7146 67.1641 67.6488 67.964 65.8203C68.387 64.8534 67.6632 62.0934 68.9555 62.7396" stroke="black" stroke-width="2" stroke-linecap="round"/>
<path d="M89.3512 60.8273C89.3512 57.7105 84.9038 60.3447 84.3937 62.3854C83.5992 65.5631 87.9921 72.5329 91.1217 68.476C92.4472 66.7578 93.1755 63.9633 93.1755 61.8188C93.1755 59.7184 91.0011 60.3225 89.4928 60.0483C87.3037 59.6503 78.084 58.6144 80.7109 64.0143C82.9585 68.6343 93.4261 69.9528 93.8129 63.3769C94.0276 59.7273 91.8785 57.3803 87.7223 58.4194C83.13 59.5674 82.5258 68.1387 88.0764 67.8386C92.7699 67.5849 95.2293 56.9164 89.0679 59.1984C86.9819 59.971 81.8969 65.4557 85.2789 67.4137C88.4477 69.2483 89.9264 64.2456 89.9886 62.1021C90.1286 57.27 87.308 59.2549 86.8724 62.7395C86.6866 64.2257 86.6576 68.517 88.5721 65.1474C89.1704 64.0945 90.0776 56.9847 88.041 59.0214C87.5777 59.4846 84.1536 64.6517 86.1642 64.6517C87.7584 64.6517 87.7877 60.3195 87.3682 59.3755C87.1531 58.8915 82.2666 63.5719 83.8979 65.2891C87.3548 68.9279 92.698 59.4239 87.2973 59.5525C82.5733 59.665 85.2911 68.2974 86.9432 65.5015C87.2591 64.967 89.327 58.5967 88.2534 59.0922C86.7501 59.786 82.2629 66.2618 84.5353 67.697C87.1062 69.3207 90.2283 65.1363 90.5551 63.0936C90.7705 61.7478 89.9886 59.9348 89.9886 62.1021" stroke="black" stroke-width="2" stroke-linecap="round"/>
<path d="M70.2295 62.7398C73.4206 62.5625 75.9315 59.3174 79.153 61.465" stroke="black" stroke-width="2" stroke-linecap="round"/>
<path d="M94.4512 65.2893C95.0626 64.5251 96.3634 61.9959 96.3634 60.9692C96.3634 59.6266 93.4538 60.1901 92.5391 60.1901" stroke="black" stroke-width="2" stroke-linecap="round"/>
<path d="M56.2065 62.1023C53.9909 62.1023 54.2943 59.6222 54.2943 57.9592C54.2943 56.6043 57.7923 58.2728 58.7561 58.9153" stroke="black" stroke-width="2" stroke-linecap="round"/>
<path d="M89.3519 40.4308C92.0796 40.0899 90.6008 31.517 89.3519 30.2325C87.5573 28.3866 84.2321 27.3288 81.7032 27.3288C80.5859 27.3288 78.8089 27.5041 78.1621 28.6036C78.0083 28.8652 77.9828 30.4826 78.0205 30.445C83.7685 24.697 65.839 18.9058 61.0941 25.7707C60.5234 26.5965 60.0318 30.3239 60.0318 29.4535C60.0318 25.015 54.9097 28.494 53.1621 30.3387C52.0894 31.4711 49.0579 36.3975 50.7542 38.0937C51.1028 38.4424 50.2037 37.2165 49.7627 36.996C48.4145 36.3219 46.643 36.8749 45.3363 37.3501C41.4769 38.7535 38.6417 41.7188 39.0332 46.0257C39.1925 47.7781 41.9838 47.3027 40.485 47.4422C36.4991 47.8129 33.3485 52.0893 32.7655 55.7991C32.559 57.1131 33.3852 60.4822 35.5275 59.411C36.6032 58.8732 34.5821 56.9494 32.7655 59.1985C29.8736 62.7789 32.6956 66.6693 36.7315 67.1305C40.7459 67.5893 37.5523 68.9207 36.8377 72.0172C36.0622 75.3778 36.5693 78.2162 39.9539 79.5951C41.907 80.3909 43.8925 79.3773 43.5304 79.4535C41.3568 79.9111 37.8692 81.2679 39.3519 84.0215C39.8965 85.0329 41.7579 85.6187 42.3972 84.3402C43.6788 81.7769 37.6409 80.916 36.2357 81.3657C33.4784 82.248 34.6077 86.1191 36.4482 87.2439C38.3149 88.3846 40.7903 87.2558 38.4312 86.8189C34.0316 86.0042 29.1487 86.7662 27.808 91.7765C26.7267 95.8172 31.7918 97.1185 34.8193 97.1589C36.6381 97.1831 38.6495 97.1149 40.3434 96.3799C40.5172 96.3045 41.5093 95.3133 41.5474 95.8841C41.6935 98.0755 43.8642 98.4337 45.7612 98.4337C46.8021 98.4337 53.1739 97.0582 50.046 95.0342C48.0356 93.7334 47.1696 96.9149 48.6295 97.1235C51.0749 97.4728 53.0944 96.1892 55.1097 95.0697C55.4655 94.872 55.0035 95.9409 55.0035 96.132C55.0035 96.6762 55.8684 96.5215 56.2074 96.5215" stroke="black" stroke-width="2" stroke-linecap="round"/>
<path d="M91.2637 32.1447C93.7407 30.9714 99.1108 29.5645 101.32 31.8969C103.496 34.1939 100.42 35.8446 103.657 35.9691C108.013 36.1366 112.416 42.0297 111.625 46.3799C111.311 48.1044 108.756 43.4398 112.085 45.4592C114.145 46.7086 123.238 56.3724 118.07 58.5258C117.318 58.8388 116.886 57.7424 117.184 57.1448C118.031 55.4523 122.237 55.8229 123.487 56.649C128.669 60.0707 122.876 66.0479 119.451 67.4493C118.448 67.8597 117.801 67.4311 118.955 66.7057C121.063 65.3806 123.821 67.5926 124.762 69.3969C127.372 74.3995 122.974 78.1406 117.928 77.3643C117.592 77.3126 120.961 76.9028 121.717 77.0456C124.07 77.49 126.241 78.6657 125.4 81.3657C123.859 86.3113 116.211 87.3697 111.767 86.9252C109.167 86.6653 113.291 84.241 114.068 86.9606C114.967 90.1047 113.161 92.1966 110.138 92.6618C108.121 92.972 110.208 90.9256 112.298 91.564C116.576 92.8714 113.138 96.3332 110.385 96.4861C106.038 96.7276 103.911 94.6883 101.462 91.4224" stroke="black" stroke-width="2" stroke-linecap="round"/>
<path d="M99.5505 94.6094C93.5256 100.866 88.6674 108.826 85.3861 116.777C84.458 119.026 82.9782 121.431 82.9782 123.93C82.9782 125.339 82.3408 125.339 82.3408 123.93" stroke="black" stroke-width="2" stroke-linecap="round"/>
<path d="M65.1305 96.5215C65.1305 106.798 64.9271 115.871 71.7523 124.213C72.148 124.696 74.3615 127.705 74.4082 127.718C77.2538 128.531 81.3375 127.754 84.2524 127.754" stroke="black" stroke-width="2" stroke-linecap="round"/>
<path d="M60.6687 96.5215C51.476 96.7841 42.968 101.14 33.8981 102.4C29.3765 103.028 24.7811 104.028 20.3004 104.843C19.6322 104.965 17.314 106.082 19.2381 106.082" stroke="black" stroke-width="2" stroke-linecap="round"/>
<path d="M101.463 96.5215C103.293 96.7249 105.351 98.1757 107.058 98.7878C112.029 100.571 117.318 100.892 122.391 102.258C127.331 103.588 132.041 104.808 137.157 104.808" stroke="black" stroke-width="2" stroke-linecap="round"/>
<path d="M68.9551 62.102C69.0494 61.3476 69.5951 61.4646 70.2299 61.4646" stroke="black" stroke-width="2" stroke-linecap="round"/>
</svg>
