<svg width="1920" height="1989" viewBox="0 0 1920 1989" fill="none" xmlns="http://www.w3.org/2000/svg">
<mask id="mask0_146_631" style="mask-type:alpha" maskUnits="userSpaceOnUse" x="0" y="0" width="1920" height="1989">
<path d="M0 0H1920V1989H0V0Z" fill="#E2C09B"/>
</mask>
<g mask="url(#mask0_146_631)">
<path d="M0 -2H1920V1987H0V-2Z" fill="#E2C09B"/>
<path d="M1916.22 65.4834C1860.28 76.3104 1805.55 93.4319 1752.26 113.568C1693.2 135.885 1632.33 161.534 1582.2 200.741C1561.47 216.948 1541.98 237.419 1534.33 263.39C1515.85 326.053 1566.74 389.011 1598.8 437.202C1623.79 474.773 1651.32 513.299 1665.84 556.503C1685.65 615.481 1659.73 675.7 1623.86 722.71C1585.41 773.085 1525.17 824.617 1460.22 833.337C1435.62 836.639 1409.8 834.622 1385.04 834.622C1357.71 834.622 1331.1 833.217 1304.08 828.839C1259.03 821.54 1213.73 813.191 1173.53 790.393C1152.25 778.321 1140.67 757.744 1121.59 743.593C1101.1 728.391 1076.99 714.918 1052.52 707.503C1018.62 697.232 984.272 699.326 949.388 701.613C923.341 703.321 898.495 714.815 872.495 715.107C851.982 715.337 830.577 716.926 810.703 711.144C782.429 702.919 755.286 690.786 730.705 674.626C710.918 661.618 692.343 647.619 674.374 632.217C661.708 621.36 650.62 608.899 636.999 599.233C598.644 572.013 553.518 554.035 509.023 539.796C477.049 529.565 440.931 521.437 414.567 499.637C396.403 484.616 382.045 468.966 369.267 449.089C341.333 405.636 342.884 346.99 358.237 299.159C367.905 269.038 381.166 225.033 417.673 217.019C436.91 212.797 462.279 217.954 480.536 224.409C510.914 235.148 534.271 254.811 547.469 284.702C571.135 338.299 559.245 411.84 538.474 464.403C511.546 532.547 452.278 592.895 392.721 633.502C352.529 660.906 310.042 682.174 262.603 693.688C199.423 709.023 131.672 709.028 67.0522 706.218C44.4559 705.236 23.0823 701.432 1.5 695.5" stroke="#AD5E5E" stroke-width="3" stroke-linecap="round"/>
<path d="M242 -0.5C236.081 8.06081 228.557 13.1526 217.772 19.6235C188.359 37.2711 162.043 30.6576 131.406 30.6576C107.818 30.6576 85.4055 18.3975 61.3874 18.3975C40.5515 18.3975 13.1888 31.4763 1.5 51" stroke="#AD5E5E" stroke-width="3" stroke-linecap="round"/>
<path d="M694 -0.5C599.368 100.404 489.132 177.52 343.95 193.651C263.254 202.617 181.22 189.846 100.21 192.418C66.6158 193.484 29.8934 199.798 1.15625 216.5" stroke="#3B3B3B" stroke-width="3" stroke-linecap="round"/>
<path d="M1918 768C1721.74 850.377 1576.3 1427.9 1477.5 1985.5" stroke="#3B3B3B" stroke-opacity="0.5" stroke-width="3" stroke-linecap="round"/>
<path d="M3.17003 1377.26C120.104 1332.74 233.241 1303.75 356.658 1287.44C416.208 1279.57 479.665 1276.58 537.014 1256.07C589.802 1237.19 664.009 1201.7 697.741 1151.32C721.717 1115.51 723.027 1080.5 718.523 1039.16C716.722 1022.63 705.932 1008.56 693.941 1000.96C640.283 966.961 569.702 1097.59 552.854 1135.6C498.149 1259.02 467.639 1395.33 413.76 1519.49C385.376 1584.9 330.703 1648 278.879 1691.48C193.339 1763.23 91.9131 1811.25 1.76659 1874.27" stroke="#AD5F5F" stroke-width="3" stroke-linecap="round"/>
<path d="M996.386 1981.08C1094.81 1742.16 1254.83 1537.05 1387.97 1319.53C1441.5 1232.08 1516.91 1133.76 1535.73 1029.94C1538.62 1013.97 1541.89 947.654 1507.85 962.03C1482.46 972.753 1456.93 1003.44 1439.11 1024.46C1335.82 1146.33 1257.88 1283.92 1171.88 1420.06C1130.62 1485.39 1081.92 1543.93 1038.25 1607.24C1017.71 1637.02 991.794 1659.09 969.327 1686.66C951.408 1708.65 927.095 1737.26 898.913 1727.89C859.81 1714.9 889.279 1652.64 905.246 1623.48C929.355 1579.46 941.445 1526.02 957.296 1478.32C966.645 1450.18 972.804 1427.31 942.56 1419.27C902.262 1408.55 839.332 1457.97 812.618 1486.19C758.652 1543.2 705.13 1617.69 666.986 1687.33C631.295 1752.5 586.496 1811.7 542.291 1870.6C518.913 1901.74 496.967 1929.81 469.475 1956.8C462.019 1964.13 450.721 1977.05 439 1985.5" stroke="#AD5F5F" stroke-width="3" stroke-linecap="round"/>
</g>
</svg>
