<svg width="157" height="142" viewBox="0 0 157 142" fill="none" xmlns="http://www.w3.org/2000/svg">
<path d="M71.4394 2.5H85.6596C123.491 2.5 154.16 33.1685 154.16 71C154.16 108.831 123.491 139.5 85.6596 139.5H71.4394C33.6079 139.5 2.93945 108.831 2.93945 71C2.93945 33.1685 33.6079 2.5 71.4394 2.5Z" fill="#EDD0C7" stroke="#AD5E5E" stroke-width="5"/>
<path d="M54.5314 48.7115C54.5314 56.1628 55.3271 63.4617 55.5903 70.8305C55.6958 73.7853 54.925 78.116 56.3845 80.7429C56.726 81.3577 56.6096 81.9228 56.6492 82.5959C56.6911 83.3091 57.6104 83.3538 57.7081 84.1843C57.8257 85.1839 59.6659 87.1199 60.3553 87.8904C61.3707 89.0252 62.2368 90.2425 63.2966 91.3024C64.3398 92.3455 66.3385 92.8545 67.2381 93.979C68.4784 95.5295 73.1135 94.7732 74.915 94.7732C77.8002 94.7732 80.813 93.9042 83.5332 93.0672C86.7285 92.084 89.5741 88.5603 91.5925 86.0373C93.5154 83.6337 94.7692 82.4585 94.7692 78.8898C94.7692 75.32 95.2986 71.7989 95.2986 68.301C95.2986 65.9073 95.5378 66.5381 97.6517 66.1538C100.808 65.5799 103.562 63.4172 104.534 60.3593C106.224 55.048 101.822 55.0649 97.9458 55.0649C95.9522 55.0649 98.225 53.6256 98.4459 51.8588C98.7523 49.4069 98.4753 46.7406 98.4753 44.2701C98.4753 41.1498 97.673 38.6236 96.8575 35.7696C96.2703 33.7141 87.5035 33.3576 85.7686 33.3576C76.8474 33.3576 67.0686 31.4093 60.2376 38.2403C57.0959 41.382 55.5903 44.8765 55.5903 49.241C55.5903 49.766 54.7038 52.2082 54.5608 51.5646C53.4363 46.5042 58.3798 42.3662 62.3848 40.564C64.8223 39.4671 63.0744 44.8012 63.0025 42.3582C62.9488 40.5315 63.4414 38.8206 65.4144 38.2403C66.381 37.956 66.5252 39.5929 66.0615 40.1228C65.4543 40.8167 67.1238 38.3395 68.0322 38.1815C69.9307 37.8513 70.0808 39.1368 69.8559 40.711C69.6874 41.8903 69.3136 40.2184 69.6794 39.4463C70.2262 38.2919 72.0453 37.6381 73.2678 38.1815C73.832 38.4322 73.5914 40.6225 73.5914 40.0051C73.5914 38.5365 74.8184 37.6466 76.121 37.1814C78.5886 36.3001 76.6769 40.9079 76.8563 39.6521C77.2429 36.9458 82.0625 36.8454 82.0625 39.711C82.0625 40.5691 66.8586 37.7997 66.9439 36.9461C67.1839 34.546 79.0057 35.007 80.7683 36.7696C81.5903 37.5916 82.5792 37.5932 83.6508 37.5932C84.8853 37.5932 85.7481 38.3771 86.8275 38.9168C88.3458 39.6759 90.9276 40.7699 92.6514 40.7699C96.5312 40.7699 90.8496 38.9163 89.71 38.7697C88.6461 38.6329 85.8459 39.2 85.0333 38.3874C84.6739 38.028 88.0323 37.4187 88.357 37.3285C90.6809 36.6829 91.1199 37.5599 92.6514 39.1815C92.9932 39.5434 93.6514 40.4851 93.6514 41.0052C93.6514 41.564 91.5657 39.4306 91.3278 39.2109C90.2555 38.2212 88.2964 37.2371 86.8569 37.0932C86.0764 37.0151 83.7194 37.0638 84.5038 37.0638C87.1093 37.0638 85.1451 37.0638 83.6508 37.0638C83.4287 37.0638 93.2815 35.4754 89.3571 35.4754C87.0138 35.4754 84.6705 35.4754 82.3272 35.4754C80.9654 35.4754 83.1571 35.6797 83.5038 35.7696C85.9211 36.3963 88.2573 36.5343 90.7395 36.5343C94.6679 36.5343 95.2986 40.6741 95.2986 43.6818C95.2986 45.5978 96.169 48.5563 93.475 48.1821C90.6908 47.7954 90.5149 44.093 88.9453 42.3582C88.5025 41.8689 87.6629 41.6263 88.9453 41.8288C92.0128 42.3131 99.2535 56.5944 94.7692 56.5944C92.5108 56.5944 94.5044 49.5457 92.1219 55.712C91.7765 56.6059 91.0631 62.2202 91.0631 59.3004" stroke="black" stroke-width="2" stroke-linecap="round"/>
<path d="M96.8867 71.4778C98.4239 74.7443 97.4162 80.553 97.4162 84.1844C97.4162 87.6356 97.4162 91.0868 97.4162 94.538C97.4162 95.7593 97.7231 96.5515 97.975 97.6853C98.2075 98.7312 99.0237 99.5383 99.0045 99.5383" stroke="black" stroke-width="2" stroke-linecap="round"/>
<path d="M71.4737 97.4204C71.4737 100.256 71.3306 103.244 67.7676 103.244" stroke="black" stroke-width="2" stroke-linecap="round"/>
<path d="M66.709 105.892C70.0604 106.264 72.2237 110.548 74.7683 112.245C78.8711 114.98 83.9416 115.554 88.7103 115.422C92.5395 115.315 96.689 111.776 96.8873 108.009C96.9987 105.893 99.0051 103.902 99.0051 101.656" stroke="black" stroke-width="2" stroke-linecap="round"/>
<path d="M98.4756 101.126C99.3288 101.126 108.655 102.19 108.506 103.009C107.887 106.41 105.888 109.397 105.888 112.892C105.888 116.118 105.888 119.343 105.888 122.569C105.888 125.702 107.476 134.968 107.476 131.834" stroke="black" stroke-width="2" stroke-linecap="round"/>
<path d="M62.4731 106.421C61.2569 106.421 60.1601 106.901 58.8846 106.95C58.0675 106.982 56.0005 107.237 56.9139 107.745C60.3294 109.642 59.8259 111.426 59.8259 115.157C59.8259 119.868 60.3553 125.237 60.3553 130.246C60.3553 132.717 60.3553 135.188 60.3553 137.658C60.3553 143.58 61.2112 125.734 60.2377 119.892C59.9097 117.924 58.767 116.93 58.767 114.863C58.767 112.941 58.6603 110.988 58.767 109.068C58.9236 106.25 66.2834 106.697 68.297 105.892" stroke="black" stroke-width="2" stroke-linecap="round"/>
<path d="M56.6503 109.598C53.0133 109.598 51.4652 111.738 48.7086 113.51C46.1336 115.165 44.0778 116.772 41.8258 118.863C39.0483 121.442 38.0802 126.599 36.002 129.717" stroke="black" stroke-width="2" stroke-linecap="round"/>
<path d="M109.064 105.362C109.388 102.776 116.876 107.47 117.536 108.009C120.068 110.081 121.908 112.194 122.83 115.421C123.87 119.062 124.928 122.793 126.536 126.01" stroke="black" stroke-width="2" stroke-linecap="round"/>
<path d="M106.946 119.657C111.489 119.657 111.925 111.675 117.535 114.48C119.097 115.261 119.653 118.106 119.653 119.657C119.653 122.332 115.968 121.744 114.359 122.422C112.678 123.13 110.784 123.647 110.652 126.01C110.524 128.327 111.827 128.658 113.829 128.658C115.604 128.658 117.279 128.128 119.124 128.128C120.634 128.128 122.83 123.994 122.83 126.54" stroke="black" stroke-width="2" stroke-linecap="round"/>
<path d="M66.7095 105.891C66.7095 107.721 66.3945 110.325 68.0037 111.245C68.5551 111.56 69.5271 113.44 69.8862 114.068C70.1766 114.577 71.2241 114.341 71.7392 114.627C74.4992 116.161 78.9482 116.48 82.0634 116.48C83.8282 116.48 85.593 116.48 87.3578 116.48C89.3383 116.48 91.2488 114.1 92.6523 112.774C95.5582 110.03 96.7576 107.211 98.4762 103.774" stroke="black" stroke-width="2" stroke-linecap="round"/>
<path d="M106.417 133.423C107.383 134.509 106.847 136.401 107.476 137.658" stroke="black" stroke-width="2" stroke-linecap="round"/>
<path d="M97.9464 62.4771H97.417" stroke="black" stroke-width="2" stroke-linecap="round"/>
<path d="M95.2988 71.4776C95.7644 69.1496 99.1175 68.6053 100.064 66.7126" stroke="black" stroke-width="2" stroke-linecap="round"/>
<path d="M67.5738 65.3953C67.5738 67.3844 67.1353 69.3698 65.8987 70.9155C65.5462 71.3562 66.4653 72.3104 66.7553 72.5145C67.2806 72.8842 68.0002 72.7619 68.6017 72.7619" stroke="black" stroke-width="2" stroke-linecap="round"/>
<path d="M65.6904 82.3559C66.2327 82.8379 67.93 82.5272 68.6124 82.5272C70.2133 82.5272 72.194 82.8982 73.552 81.842C74.3595 81.2139 74.9828 80.3297 75.7982 79.7861" stroke="black" stroke-width="2" stroke-linecap="round"/>
<path d="M73.9131 61.6263C74.4777 61.5635 75.0966 61.2914 75.7024 61.4645C76.1595 61.5951 75.1911 61.9295 75.1123 61.9689" stroke="black" stroke-width="2" stroke-linecap="round"/>
<path d="M59.3506 63.5107C60.5538 63.5107 59.7234 64.2866 59.5219 63.6821" stroke="black" stroke-width="2" stroke-linecap="round"/>
<path d="M70.0435 107.38C69.6674 108.603 69.4962 110.925 70.632 111.899C72.6504 113.629 70.3916 110.8 69.8754 110.05C69.5287 109.545 69.1435 109.039 68.7405 108.578C68.5822 108.397 69.291 110.022 69.6652 110.407C70.5028 111.269 71.7991 112.677 73.0699 112.677" stroke="black" stroke-width="2" stroke-linecap="round"/>
</svg>
