<svg width="2060" height="2484" viewBox="0 0 2060 2484" fill="none" xmlns="http://www.w3.org/2000/svg">
<path d="M35 922.698C44.5475 931.378 56.0281 936.086 68.1987 940.047C95.5709 948.955 123.223 954.965 152.052 956.218C216.672 959.028 284.423 959.023 347.603 943.688C395.042 932.174 437.529 910.906 477.721 883.502C537.278 842.895 596.546 782.547 623.474 714.403C644.245 661.84 656.135 588.299 632.469 534.702C619.271 504.811 595.914 485.148 565.536 474.409C547.279 467.954 521.91 462.797 502.673 467.019C466.166 475.033 452.905 519.038 443.237 549.159C427.884 596.99 426.333 655.636 454.267 699.089C467.045 718.966 481.403 734.616 499.567 749.637C525.931 771.437 562.049 779.565 594.023 789.796C638.518 804.035 683.644 822.013 721.999 849.233C735.62 858.899 746.708 871.36 759.374 882.217C777.343 897.619 795.918 911.618 815.705 924.626C840.286 940.786 867.429 952.919 895.703 961.144C915.577 966.926 936.982 965.337 957.495 965.107C983.495 964.815 1008.34 953.321 1034.39 951.613C1069.27 949.326 1103.62 947.232 1137.52 957.503C1161.99 964.918 1186.1 978.391 1206.59 993.593C1225.67 1007.74 1237.25 1028.32 1258.53 1040.39C1298.73 1063.19 1344.03 1071.54 1389.08 1078.84C1416.1 1083.22 1442.71 1084.62 1470.04 1084.62C1494.8 1084.62 1520.62 1086.64 1545.22 1083.34C1610.17 1074.62 1670.41 1023.09 1708.86 972.71C1744.73 925.7 1770.65 865.481 1750.84 806.503C1736.32 763.299 1708.79 724.773 1683.8 687.202C1651.74 639.011 1600.85 576.053 1619.33 513.39C1626.98 487.419 1646.47 466.948 1667.2 450.741C1717.33 411.534 1778.2 385.885 1837.26 363.568C1890.55 343.432 1945.28 326.31 2001.22 315.483" stroke="#AD5E5E" stroke-width="3" stroke-linecap="round"/>
<path d="M81 314.986C85.4116 288.516 121.025 268.397 146.387 268.397C170.405 268.397 192.818 280.658 216.406 280.658C247.043 280.658 273.359 287.271 302.772 269.623C319.968 259.305 330.609 248.68 335.874 230.255C337.908 223.134 332.217 217.346 328.654 212.001C315.058 191.608 300.307 169.599 290.511 147.159C279.309 121.496 271.431 93.5748 275.799 65.4247C279.268 43.0678 292.001 26.682 304.134 8.4834" stroke="#AD5E5E" stroke-width="3" stroke-linecap="round"/>
<path d="M38.6777 527.295C55.4763 462.901 125.315 444.319 185.21 442.418C266.22 439.846 348.254 452.617 428.95 443.651C600.697 424.568 723.54 319.409 829.498 191.484C860.69 153.826 897.101 107.71 943.147 87.4941C995.954 64.3106 1051.39 61.1882 1108.18 61.1882C1180.68 61.1882 1260.87 70.6928 1331.78 52.9676C1369.31 43.5846 1402.84 19.0806 1437 2" stroke="#3B3B3B" stroke-width="3" stroke-linecap="round"/>
<path d="M1633.06 9.39844C1607.94 29.9535 1541.62 77.1198 1562.77 118.321C1571.66 135.619 1600.15 144.497 1617.03 150.792C1657.66 165.943 1702.95 170.801 1745.68 176.687C1849.51 190.99 1953.92 190.662 2058.48 190.662" stroke="#3B3B3B" stroke-width="3" stroke-linecap="round"/>
<path d="M1561 2244C1667.67 1639.26 1829.23 1008 2051 1008" stroke="#3B3B3B" stroke-opacity="0.5" stroke-width="3" stroke-linecap="round"/>
<path d="M88.17 1627.26C205.104 1582.74 318.241 1553.75 441.658 1537.44C501.208 1529.57 564.665 1526.58 622.014 1506.07C674.802 1487.19 749.009 1451.7 782.741 1401.32C806.717 1365.51 808.027 1330.5 803.523 1289.16C801.722 1272.63 790.932 1258.56 778.941 1250.96C725.283 1216.96 654.702 1347.59 637.854 1385.6C583.149 1509.02 552.639 1645.33 498.76 1769.49C470.376 1834.9 415.703 1898 363.879 1941.48C278.339 2013.23 176.913 2061.25 86.7666 2124.27" stroke="#AD5F5F" stroke-width="3" stroke-linecap="round"/>
<path d="M503 2243.56C520.629 2245.41 542.504 2218.56 554.476 2206.8C581.967 2179.81 603.914 2151.74 627.292 2120.6C671.496 2061.7 716.295 2002.5 751.987 1937.33C790.13 1867.69 843.652 1793.2 897.618 1736.2C924.332 1707.97 987.262 1658.55 1027.56 1669.27C1057.8 1677.31 1051.65 1700.18 1042.3 1728.32C1026.45 1776.02 1014.36 1829.46 990.246 1873.48C974.28 1902.64 944.81 1964.9 983.913 1977.89C1012.1 1987.26 1036.41 1958.65 1054.33 1936.66C1076.79 1909.09 1102.71 1887.02 1123.25 1857.24C1166.92 1793.93 1215.62 1735.39 1256.88 1670.06C1342.88 1533.92 1420.82 1396.33 1524.11 1274.46C1541.93 1253.44 1567.46 1222.75 1592.85 1212.03C1626.89 1197.65 1623.62 1263.97 1620.73 1279.94C1601.91 1383.77 1526.5 1482.08 1472.97 1569.53C1339.83 1787.05 1179.81 1992.16 1081.39 2231.08" stroke="#AD5F5F" stroke-width="3" stroke-linecap="round"/>
</svg>
