<svg width="78" height="78" viewBox="0 0 78 78" fill="none" xmlns="http://www.w3.org/2000/svg">
<g filter="url(#filter0_d_52_2977)">
<ellipse cx="39" cy="34.8103" rx="35" ry="34.8103" fill="#E2C09B"/>
</g>
<path d="M20.2841 54.2443C32.9531 38.3487 25.9231 24.5699 17.8545 16.9742C15.6166 14.8676 16.1208 10.4791 18.7114 8.82548C20.7091 7.55039 22.2488 8.8529 23.4199 10.9133C39.7474 39.6398 22.3602 64.1987 21.2701 64.5601C17.1983 65.91 17.6105 57.599 20.2841 54.2443Z" fill="#E2C09B"/>
<path d="M11.9196 44.3532C25.5566 38.5674 20.3196 33.4515 12.761 30.3736C9.12721 28.8938 6.51831 24.1855 8.40364 20.7447C10.2724 17.3341 13.9868 18.0857 16.792 20.7793C30.3922 33.8384 23.6888 46.1394 15.8897 53.0122C13.7399 54.9067 9.87783 52.9605 8.52137 50.4364C7.06192 47.7208 9.08147 45.5573 11.9196 44.3532Z" fill="#E2C09B"/>
<path d="M57.7283 17.6693C45.0022 33.5197 51.9826 47.3235 60.0238 54.9478C62.254 57.0624 61.7341 61.4491 59.1375 63.0935C57.1353 64.3614 55.6003 63.0535 54.4366 60.9889C38.2126 32.2045 55.6881 7.70763 56.7794 7.35014C60.8561 6.01472 60.414 14.3242 57.7283 17.6693Z" fill="#E2C09B"/>
<path d="M66.0751 27.5826C52.3949 33.3229 57.6147 38.4605 65.1655 41.5667C68.7939 43.0594 71.3858 47.7769 69.4881 51.211C67.6071 54.615 63.8954 53.8501 61.1 51.1465C47.5899 38.0807 54.2519 25.84 62.0437 18.9824C64.3228 16.9767 68.2005 18.0105 69.641 20.6829C71.1751 23.529 69.0566 26.3316 66.0751 27.5826Z" fill="#E2C09B"/>
<path d="M21.8138 45.1468C21.4286 45.6764 21.1592 46.0873 21.0363 46.2795C20.9838 46.3616 21.0168 46.3234 20.9589 46.4018C17.8582 50.5976 4.67039 51.3912 6.55258 46.5253C6.58456 46.4426 6.64532 46.3988 6.73771 46.3988C8.02961 46.3988 13.3214 42.3083 14.4394 40.5698C15.145 39.4727 16.9883 38.0048 18.2524 37.071C19.0931 36.4499 20.0261 35.9751 20.9611 35.5077C23.6693 34.1541 23.5946 42.6983 21.8138 45.1468Z" fill="#AD5E5E"/>
<path d="M55.8249 45.1468C56.2101 45.6764 56.4795 46.0873 56.6024 46.2795C56.6549 46.3616 56.6219 46.3234 56.6798 46.4018C59.7805 50.5976 72.9683 51.3912 71.0861 46.5253C71.0541 46.4426 70.9934 46.3988 70.901 46.3988C69.6091 46.3988 64.3172 42.3083 63.1992 40.5698C62.4937 39.4727 60.6504 38.0048 59.3863 37.071C58.5455 36.4499 57.6126 35.9751 56.6776 35.5077C53.9694 34.1541 54.0441 42.6983 55.8249 45.1468Z" fill="#AD5E5E"/>
<path d="M66.5 35.0104C66.5 50.1905 54.1899 62.5001 39 62.5001C23.8101 62.5001 11.5 50.1905 11.5 35.0104C11.5 19.8303 23.8101 7.52063 39 7.52063C54.1899 7.52063 66.5 19.8303 66.5 35.0104Z" stroke="#AD5E5E" stroke-width="15"/>
<path d="M59.7159 24.8961C54.0541 15.4274 48.2384 14.7439 43.9913 16.6951C40.1196 18.4738 39 23.1446 39 27.4053V30.5214C39 29.7682 40.6531 28.0225 42.2299 26.5516C43.4422 25.4208 44.8286 24.4278 46.4332 24.0111C50.567 22.9375 52.1104 25.5705 52.4925 28.2046C52.714 29.732 52.3505 31.2856 51.5567 32.6091C50.2502 34.7874 48.0616 37.3325 45.7699 39.7014C41.6768 43.9325 39 49.4473 39 55.3342V55.7228C39 49.2424 48.6168 46.5723 53.4252 46.0473C59.0651 44.9222 68.2192 39.1169 59.7159 24.8961Z" fill="#AD5E5E"/>
<path d="M18.2841 24.8961C23.9459 15.4274 29.7616 14.7439 34.0087 16.6951C37.8804 18.4738 39 23.1446 39 27.4053V30.5214C39 29.7682 37.3469 28.0225 35.7701 26.5516C34.5578 25.4208 33.1714 24.4278 31.5668 24.0111C27.433 22.9375 25.8896 25.5705 25.5075 28.2046C25.286 29.732 25.6495 31.2856 26.4433 32.6091C27.7498 34.7874 29.9384 37.3325 32.2301 39.7014C36.3232 43.9325 39 49.4473 39 55.3342V55.7228C39 49.2424 29.3832 46.5723 24.5748 46.0473C18.9349 44.9222 9.78085 39.1169 18.2841 24.8961Z" fill="#AD5E5E"/>
<defs>
<filter id="filter0_d_52_2977" x="0" y="0" width="78" height="77.6206" filterUnits="userSpaceOnUse" color-interpolation-filters="sRGB">
<feFlood flood-opacity="0" result="BackgroundImageFix"/>
<feColorMatrix in="SourceAlpha" type="matrix" values="0 0 0 0 0 0 0 0 0 0 0 0 0 0 0 0 0 0 127 0" result="hardAlpha"/>
<feOffset dy="4"/>
<feGaussianBlur stdDeviation="2"/>
<feComposite in2="hardAlpha" operator="out"/>
<feColorMatrix type="matrix" values="0 0 0 0 0 0 0 0 0 0 0 0 0 0 0 0 0 0 0.25 0"/>
<feBlend mode="normal" in2="BackgroundImageFix" result="effect1_dropShadow_52_2977"/>
<feBlend mode="normal" in="SourceGraphic" in2="effect1_dropShadow_52_2977" result="shape"/>
</filter>
</defs>
</svg>
