<svg width="78" height="78" viewBox="0 0 78 78" fill="none" xmlns="http://www.w3.org/2000/svg">
<g filter="url(#filter0_d_204_343)">
<circle cx="39" cy="35" r="35" fill="#E2C09B"/>
</g>
<path d="M18.9121 23.3542C26.0567 23.4908 33.188 24.1368 40.3338 24.1677C43.8346 24.1829 47.3415 24.0937 50.8413 24.179C53.6261 24.247 56.393 24.5745 59.1795 24.5745" stroke="#AD5E5E" stroke-width="6" stroke-linecap="round"/>
<path d="M19.3193 37.1835C23.2286 37.1835 27.1378 37.1835 31.0471 37.1835C37.2199 37.1835 43.3697 37.5286 49.5312 37.5902C52.2723 37.6176 55.015 37.5902 57.7564 37.5902" stroke="#AD5E5E" stroke-width="6" stroke-linecap="round"/>
<path d="M21.3525 51.2161C33.7615 51.2161 46.163 51.4194 58.5694 51.4194" stroke="#AD5E5E" stroke-width="6" stroke-linecap="round"/>
<path d="M22.7504 22.6881C23.3339 21.6962 25.5948 21.4409 26.6481 21.4409C27.9358 21.4409 29.2235 21.4409 30.5112 21.4409C32.6939 21.4409 34.8766 21.4409 37.0593 21.4409C39.5454 21.4409 42.032 21.7527 44.517 21.7527C47.2288 21.7527 49.9952 21.757 52.6848 22.0558C53.7695 22.1764 55.4186 21.6747 56.4266 22.0992C56.8979 22.2976 57.7256 22.2618 58.107 22.5669C58.6243 22.9807 58.6898 23.2701 57.8298 23.1472C56.0051 22.8865 54.0939 22.2204 52.2171 22.2204C49.4667 22.2204 46.7341 21.9086 43.9799 21.9086C39.1371 21.9086 34.3075 21.4409 29.4545 21.4409C27.4451 21.4409 25.4117 21.285 23.3827 21.285C21.8956 21.285 20.2559 20.8335 20.2559 22.6881" stroke="#AD5E5E" stroke-width="6" stroke-linecap="round"/>
<path d="M22.5889 50.9235C28.7628 49.1076 35.5666 49.6497 41.9264 49.3522C44.0103 49.2547 46.1075 49.3165 48.1937 49.3165C49.4419 49.3165 50.8242 49.4814 52.0505 49.2362C53.754 48.8954 55.7267 49.1558 57.4607 49.1558" stroke="#AD5E5E" stroke-width="6" stroke-linecap="round"/>
<path d="M21.1035 34.9847C24.9169 34.9847 28.7144 35.1547 32.5273 35.1547C36.8223 35.1547 41.2713 34.8292 45.5371 35.3624C47.2932 35.5819 49.1702 35.6312 50.9374 35.6645C51.933 35.6833 52.9193 35.8344 53.9019 35.8344C55.0915 35.8344 56.2811 35.8344 57.4707 35.8344" stroke="#AD5E5E" stroke-width="6" stroke-linecap="round"/>
<defs>
<filter id="filter0_d_204_343" x="0" y="0" width="78" height="78" filterUnits="userSpaceOnUse" color-interpolation-filters="sRGB">
<feFlood flood-opacity="0" result="BackgroundImageFix"/>
<feColorMatrix in="SourceAlpha" type="matrix" values="0 0 0 0 0 0 0 0 0 0 0 0 0 0 0 0 0 0 127 0" result="hardAlpha"/>
<feOffset dy="4"/>
<feGaussianBlur stdDeviation="2"/>
<feComposite in2="hardAlpha" operator="out"/>
<feColorMatrix type="matrix" values="0 0 0 0 0 0 0 0 0 0 0 0 0 0 0 0 0 0 0.25 0"/>
<feBlend mode="normal" in2="BackgroundImageFix" result="effect1_dropShadow_204_343"/>
<feBlend mode="normal" in="SourceGraphic" in2="effect1_dropShadow_204_343" result="shape"/>
</filter>
</defs>
</svg>
