<svg width="70" height="70" viewBox="0 0 70 70" fill="none" xmlns="http://www.w3.org/2000/svg">
<circle cx="35" cy="35" r="35" fill="#AD5E5E"/>
<path d="M14.3432 26.2693C14.3432 30.8048 14.3432 35.3404 14.3432 39.8759C14.3432 41.5968 13.7539 44.7879 14.8158 46.109C17.091 48.9395 21.5697 47.7534 24.8398 47.7534C28.886 47.7534 32.9321 47.7534 36.9782 47.7534C41.4886 47.7534 45.999 47.7534 50.5094 47.7534C55.3539 47.7534 53.743 37.8356 53.743 34.2794C53.743 31.7928 53.2953 29.3916 53.2953 27.012C53.2953 24.4714 52.7098 23.8179 51.5044 22.2112C50.7301 21.1791 47.5571 21.0176 46.3555 21.0176C44.1832 21.0176 42.0109 21.0176 39.8386 21.0176C34.8059 21.0176 29.7731 21.0176 24.7404 21.0176C21.0803 21.0176 14.5106 20.482 13 25.3145" stroke="#E2C09B" stroke-width="4" stroke-linecap="round"/>
<path d="M55.1651 45C55.3442 46.6385 55.6572 48.5805 56.4211 50.0559C56.8509 50.886 56.9737 53.7517 56.9737 52.8136C56.9737 51.6847 57.2412 49.0201 56.0694 48.3195C55.2053 47.8028 52.9628 48.2174 52 48.2174" stroke="#E2C09B" stroke-width="4" stroke-linecap="round"/>
<path d="M50 49C52.4654 49.2455 53.5645 53 56 53" stroke="#E2C09B" stroke-width="4" stroke-linecap="round"/>
<path d="M30.2552 30.8003C30.0562 31.8453 28.7076 32.8089 28.0672 33.6018C27.511 34.2905 27.0177 34.9448 26.5404 35.6807C26.1698 36.2521 25.7889 36.9064 25.3476 37.4257C25.1764 37.627 25.221 37.9183 24.9795 38.0391" stroke="#E2C09B" stroke-width="4" stroke-linecap="round"/>
<path d="M20.4404 30.9231C21.0524 31.5906 21.5026 32.3984 22.09 33.0907C23.1468 34.3363 24.2926 35.5224 25.2868 36.8191C25.4784 37.0691 26.087 37.9786 26.0774 37.9642C25.8505 37.6239 25.8077 36.9852 25.5662 36.7169C24.9436 36.0251 24.3923 34.9853 23.869 34.1676C23.4411 33.4991 22.8742 32.954 22.3967 32.3272C22.0708 31.8995 21.7502 31.3464 21.2993 31.0458" stroke="#E2C09B" stroke-width="4" stroke-linecap="round"/>
<path d="M25.3478 34.9719C25.3478 33.75 25.0263 32.8673 24.3663 31.8773C23.8174 31.054 23.9486 30.3096 22.8327 30.3096C22.5873 30.3096 22.3419 30.3096 22.0965 30.3096C21.7938 30.3096 21.805 30.5599 21.5989 30.6776C21.1431 30.9381 21.1763 31.5775 21.1763 32.0273" stroke="#E2C09B" stroke-width="4" stroke-linecap="round"/>
<path d="M26.943 34.3584C26.943 32.4106 29.2142 29.5695 31.2645 31.0457C31.9932 31.5704 32.1261 33.1014 31.4826 33.7449C30.6626 34.5649 29.8638 35.3404 28.9333 36.0761C28.1072 36.7293 26.8644 37.2421 26.3023 38.1618C25.8807 38.8518 25.4334 37.9036 25.2526 37.5484C24.8478 36.7534 24.2548 35.6108 23.4804 35.0946C23.1167 34.8521 22.677 34.6676 22.2807 34.4811C21.6669 34.1922 21.4058 33.8651 20.9311 33.3769C20.2598 32.6863 20.0723 31.9765 20.0723 31.0457" stroke="#E2C09B" stroke-width="4" stroke-linecap="round"/>
<path d="M39.2119 33.3769C40.1614 32.4024 40.9772 31.2981 41.9384 30.3368C42.2842 29.991 42.7359 29.6341 42.9881 29.2054C43.2695 28.727 43.2772 29.2943 43.2335 29.6007C43.0763 30.7009 42.7401 31.7515 42.62 32.8588C42.3913 34.9678 42.0338 37.1941 42.0338 39.2661" stroke="#E2C09B" stroke-width="4" stroke-linecap="round"/>
</svg>
