<svg width="78" height="78" viewBox="0 0 78 78" fill="none" xmlns="http://www.w3.org/2000/svg">
<g filter="url(#filter0_d_52_2991)">
<circle cx="39" cy="35" r="35" fill="#AD5E5E"/>
</g>
<path d="M23.2363 44.5098C23.9839 49.9298 27.1136 51.8763 32.0935 53.218C36.6105 54.4351 41.9217 55.055 45.9374 52.1388C48.304 50.4202 51.7057 47.8041 51.7057 44.5098" stroke="#E2C09B" stroke-width="4" stroke-linecap="round"/>
<path d="M45.3418 44.5098C47.0403 44.3554 48.7591 43.5248 50.3658 43.0026C52.4479 42.326 53.2587 41.2998 53.864 43.6539C54.4744 46.0277 55.6507 47.9718 56.3946 50.2037" stroke="#E2C09B" stroke-width="4" stroke-linecap="round"/>
<path d="M54.2188 28.8486C53.6564 23.4062 50.5949 21.3542 45.6637 19.8434C41.1908 18.4731 35.9038 17.6724 31.791 20.45C29.3672 22.0869 25.8783 24.5855 25.7659 27.8779" stroke="#E2C09B" stroke-width="4" stroke-linecap="round"/>
<path d="M32.1241 28.0945C30.4214 28.1909 28.6752 28.9625 27.0516 29.4296C24.9476 30.0349 24.1024 31.0327 23.5777 28.6594C23.0486 26.2662 21.9393 24.283 21.2719 22.0271" stroke="#E2C09B" stroke-width="4" stroke-linecap="round"/>
<defs>
<filter id="filter0_d_52_2991" x="0" y="0" width="78" height="78" filterUnits="userSpaceOnUse" color-interpolation-filters="sRGB">
<feFlood flood-opacity="0" result="BackgroundImageFix"/>
<feColorMatrix in="SourceAlpha" type="matrix" values="0 0 0 0 0 0 0 0 0 0 0 0 0 0 0 0 0 0 127 0" result="hardAlpha"/>
<feOffset dy="4"/>
<feGaussianBlur stdDeviation="2"/>
<feComposite in2="hardAlpha" operator="out"/>
<feColorMatrix type="matrix" values="0 0 0 0 0 0 0 0 0 0 0 0 0 0 0 0 0 0 0.25 0"/>
<feBlend mode="normal" in2="BackgroundImageFix" result="effect1_dropShadow_52_2991"/>
<feBlend mode="normal" in="SourceGraphic" in2="effect1_dropShadow_52_2991" result="shape"/>
</filter>
</defs>
</svg>
