<svg width="78" height="78" viewBox="0 0 78 78" fill="none" xmlns="http://www.w3.org/2000/svg">
<g filter="url(#filter0_d_52_3007)">
<circle cx="39" cy="35" r="35" fill="#AD5E5E"/>
</g>
<path d="M21.8965 19.4521C22.2548 19.4521 22.628 19.4009 22.965 19.5399C23.6544 19.8244 24.7822 19.9454 25.3509 20.4035C26.8425 21.6051 28.4539 22.2514 30.2251 22.9358C30.8284 23.1689 31.4872 23.3014 32.1134 23.4774C33.4023 23.8395 34.7169 24.2701 36.0362 24.4873C36.5762 24.5763 37.1958 24.8409 37.6755 25.1021C39.135 25.8967 40.8876 26.3878 42.4766 26.8586C44.282 27.3935 46.1423 27.9024 47.746 28.9371C48.659 29.5261 49.8016 29.9525 50.8345 30.2545C51.766 30.5267 52.6119 30.9951 53.4985 31.3815C53.8169 31.5203 54.3146 31.9107 54.6329 31.9597C54.9876 32.0143 56.1857 32.6148 56.0674 32.633C54.9107 32.811 53.8978 33.9611 52.8984 34.5505C50.7455 35.8202 49.3172 38.1114 47.1313 39.2564C46.4148 39.6317 45.8005 40.2646 45.1333 40.7494C42.7522 42.4794 40.3883 44.2337 37.9683 45.9091C37.145 46.479 36.3296 47.0538 35.5312 47.6583C35.2511 47.8703 34.7633 48.1185 34.5578 48.4267C34.4259 48.6245 34.0906 48.6239 33.8772 48.7707C33.4873 49.0387 33.224 49.3658 32.8818 49.6782C32.4395 50.082 31.8029 50.1204 31.3742 50.5491C30.3075 51.6158 28.5336 52.392 27.9563 53.8352" stroke="#E2C09B" stroke-width="3" stroke-linecap="round"/>
<path d="M26.9031 52.1228C27.1545 51.2429 28.0476 50.6561 28.5278 49.9126C28.6707 49.6913 28.9477 49.5262 29.0401 49.3271C29.353 48.6532 29.9704 48.1134 30.416 47.5267C30.9171 46.8671 31.8651 46.0641 32.1432 45.2726C32.4922 44.2792 33.7567 43.5465 33.8851 42.4768C33.9518 41.9209 35.0481 40.9135 35.4 40.4788C35.8922 39.8709 36.5408 39.2742 36.7833 38.5467C36.8948 38.2122 37.193 37.9944 37.3248 37.6319C37.4283 37.3473 37.8148 36.8289 38.0713 36.6365C38.3651 36.4163 38.891 35.8539 38.891 35.4948C38.891 35.1569 38.5174 34.5074 38.2031 34.3677C37.7706 34.1755 37.5562 33.797 37.1858 33.4822C35.8032 32.307 34.6761 30.9648 33.3801 29.6911C32.4269 28.7543 31.4002 27.9016 30.4526 26.9539C29.7343 26.2356 29.0574 25.3784 28.2863 24.7291C27.7573 24.2836 27.4322 23.6449 26.8299 23.2434C26.4398 22.9833 26.1089 22.5127 25.6589 22.248C25.4225 22.109 24.8337 21.5921 24.6709 21.3478C24.3614 20.8836 23.8518 20.6566 23.5511 20.1842C23.3262 19.8308 22.7676 19.6409 22.6875 19.3206" stroke="#E2C09B" stroke-width="3" stroke-linecap="round"/>
<defs>
<filter id="filter0_d_52_3007" x="0" y="0" width="78" height="78" filterUnits="userSpaceOnUse" color-interpolation-filters="sRGB">
<feFlood flood-opacity="0" result="BackgroundImageFix"/>
<feColorMatrix in="SourceAlpha" type="matrix" values="0 0 0 0 0 0 0 0 0 0 0 0 0 0 0 0 0 0 127 0" result="hardAlpha"/>
<feOffset dy="4"/>
<feGaussianBlur stdDeviation="2"/>
<feComposite in2="hardAlpha" operator="out"/>
<feColorMatrix type="matrix" values="0 0 0 0 0 0 0 0 0 0 0 0 0 0 0 0 0 0 0.25 0"/>
<feBlend mode="normal" in2="BackgroundImageFix" result="effect1_dropShadow_52_3007"/>
<feBlend mode="normal" in="SourceGraphic" in2="effect1_dropShadow_52_3007" result="shape"/>
</filter>
</defs>
</svg>
