<svg width="78" height="78" viewBox="0 0 78 78" fill="none" xmlns="http://www.w3.org/2000/svg">
<g filter="url(#filter0_d_204_344)">
<circle cx="39" cy="35" r="35" fill="#E2C09B"/>
</g>
<path d="M16.8672 42.6744C22.8094 36.9607 30.2265 32.8733 37.3624 28.8904C37.9557 28.5593 38.7582 28.2285 39.3962 27.9865C40.9891 27.3823 41.7419 28.0688 43.1472 29.0938C46.5017 31.5403 49.982 33.9481 53.0672 36.7315C54.3751 37.9114 55.5041 39.3507 56.9312 40.3921C57.6365 40.9068 59.0495 41.3837 59.5299 42.0643C59.7663 42.3993 59.9964 42.5437 60.3885 42.6744" stroke="#AD5E5E" stroke-width="6" stroke-linecap="round"/>
<path d="M18.6279 41.5375C23.3927 39.7049 28.1932 37.9312 32.8766 35.8976C34.3879 35.2414 36.1151 34.4496 37.7562 34.1512C38.3157 34.0495 38.8827 33.7045 39.4307 33.4937C40.6695 33.0173 41.2506 33.6877 42.3174 34.4286C44.6641 36.0582 47.3297 37.2634 49.8783 38.5378C51.6235 39.4103 53.488 39.9103 55.2408 40.7156C56.1402 41.1289 57.5874 41.9073 58.5693 41.9073" stroke="#AD5E5E" stroke-width="6" stroke-linecap="round"/>
<path d="M41.3721 27.8539C41.8806 27.9001 42.3739 28.1601 42.8103 28.4086C44.2497 29.2283 45.6488 30.1349 47.0633 30.9974C48.8884 32.1103 50.6145 33.3521 52.4258 34.4697C53.8333 35.3381 55.3269 36.1907 56.6275 37.2023C57.2716 37.7033 58.5356 38.3457 58.9389 39.0514C59.3716 39.8087 60.4824 40.066 60.788 40.9828" stroke="#AD5E5E" stroke-width="6" stroke-linecap="round"/>
<defs>
<filter id="filter0_d_204_344" x="0" y="0" width="78" height="78" filterUnits="userSpaceOnUse" color-interpolation-filters="sRGB">
<feFlood flood-opacity="0" result="BackgroundImageFix"/>
<feColorMatrix in="SourceAlpha" type="matrix" values="0 0 0 0 0 0 0 0 0 0 0 0 0 0 0 0 0 0 127 0" result="hardAlpha"/>
<feOffset dy="4"/>
<feGaussianBlur stdDeviation="2"/>
<feComposite in2="hardAlpha" operator="out"/>
<feColorMatrix type="matrix" values="0 0 0 0 0 0 0 0 0 0 0 0 0 0 0 0 0 0 0.25 0"/>
<feBlend mode="normal" in2="BackgroundImageFix" result="effect1_dropShadow_204_344"/>
<feBlend mode="normal" in="SourceGraphic" in2="effect1_dropShadow_204_344" result="shape"/>
</filter>
</defs>
</svg>
