<svg width="157" height="142" viewBox="0 0 157 142" fill="none" xmlns="http://www.w3.org/2000/svg">
<path d="M2.7207 71C2.7207 33.1685 33.3892 2.5 71.2207 2.5H85.4409C123.272 2.5 153.941 33.1685 153.941 71C153.941 108.831 123.272 139.5 85.4409 139.5H71.2207C33.3892 139.5 2.7207 108.831 2.7207 71Z" fill="#EDD0C7" stroke="#AD5F5F" stroke-width="5"/>
<path d="M54.3036 46.605C54.3036 55.2438 53.3555 63.7989 53.3555 72.4419C53.3555 79.2526 54.5692 84.2834 57.6221 90.2196C58.6503 92.219 60.9012 93.4671 61.9941 95.4344C62.8436 96.9635 65.0389 97.0894 66.1817 98.0418C67.5938 99.2185 72.4744 98.7529 74.241 98.7529C77.4852 98.7529 80.2749 98.7765 83.222 97.2253C102.712 86.9677 98.8664 63.0811 98.8664 44.7087" stroke="black" stroke-width="2" stroke-linecap="round"/>
<path d="M53.8291 46.6049C54.1556 43.6663 59.0259 40.8121 61.5196 40.0732C66.6953 38.5397 73.0823 38.5457 78.4808 38.5457C82.4698 38.5457 88.1149 38.8214 91.6495 40.916C92.9676 41.6971 94.3962 41.7251 95.5474 42.8123C96.583 43.7903 97.3889 44.6538 98.3918 45.6567" stroke="black" stroke-width="2" stroke-linecap="round"/>
<path d="M98.3926 43.2864C98.3926 41.9335 99.0683 34.6514 98.0765 34.3844C97.2739 34.1683 96.53 34.9548 96.2329 35.5959C96.1317 35.8145 96.0222 37.0691 96.0222 36.7548C96.0222 33.8367 96.1577 30.8744 92.9671 29.6437C90.5973 28.7296 88.4897 28.8373 88.4897 31.8034C88.4897 32.5667 89.6587 28.6087 88.2264 27.8528C85.3089 26.313 83.4628 30.6309 83.749 32.7778C84.119 35.5529 85.7423 33.5902 85.4873 31.5927C84.7754 26.0163 78.7534 23.4778 73.6355 23.9812C71.1574 24.2249 67.2901 27.9305 69.8429 30.3812C70.646 31.1521 71.8597 26.782 69.4215 28.9589C67.6887 30.5061 64.908 35.8141 68.6314 36.9128C72.417 38.0299 73.6242 32.5971 73.1351 29.9071C72.7229 27.6399 68.5673 27.2111 68.5261 30.0124C68.5089 31.1793 68.6138 32.3814 69.0001 33.489C69.4508 34.7808 68.4335 33.2238 67.894 32.8042C65.9569 31.2976 63.7573 30.6818 61.3623 30.3021C59.595 30.022 55.0943 28.8006 53.5665 30.3285C51.4194 32.4755 55.0666 35.2184 56.6743 36.1227C57.5111 36.5934 60.4746 37.9658 59.308 35.7013C58.059 33.2767 58.0126 36.9551 58.1492 37.8083C58.2648 38.5313 60.313 41.1634 58.8339 39.3885C58.5401 39.036 54.7123 35.2201 54.3303 36.9391C54.2649 37.2334 54.4179 39.9351 55.1467 39.3885C55.4266 39.1786 54.8966 39.0128 54.778 39.0198C54.0244 39.0641 53.8825 40.1088 53.8825 40.679C53.8825 42.7632 56.1732 44.0906 58.0965 43.6552C60.8204 43.0384 62.0206 36.7533 61.81 34.4371C61.6149 32.2903 59.7231 36.5497 59.6241 36.9128C59.5589 37.1516 60.0665 33.1521 59.9401 32.0141C59.6684 29.5688 56.8711 29.7269 57.9385 32.0141C59.1173 34.5402 63.547 36.4948 66.0504 34.6741C66.8624 34.0835 67.1022 32.8451 67.3145 31.9351C67.4813 31.2203 66.9215 29.4208 67.5779 29.7491C67.879 29.8996 68.3992 31.0567 68.7368 31.3293C69.9918 32.343 71.6735 32.7306 73.2141 33.0676C74.7185 33.3966 75.4237 32.3355 75.1631 32.8569" stroke="black" stroke-width="2" stroke-linecap="round"/>
<path d="M82.2731 32.3829C77.9341 32.3829 65.0531 32.3634 69.2888 33.3047C71.3463 33.7619 72.5471 31.0285 73.0024 29.5385C73.1978 28.8989 73.9215 27.2413 73.6081 26.5623C73.1181 25.5007 70.5094 26.7488 70.0526 27.2208C63.3517 34.145 76.8624 42.6388 80.2715 34.3055C80.9376 32.6773 80.5164 29.6566 80.0081 32.5936C79.9347 33.0178 80.1175 37.9549 81.562 36.9919C83.0605 35.9929 82.1219 31.863 81.0879 30.829C79.1445 28.8855 77.851 32.6064 79.0073 34.1738C80.084 35.6335 86.1661 37.8853 87.6196 36.0964C87.8842 35.7707 87.962 34.4653 87.962 34.8849C87.962 35.9092 88.4224 36.4751 89.2788 37.0182C89.9506 37.4442 91.2174 37.5977 89.8582 37.5977C88.3832 37.5977 90.1594 38.5816 90.7537 38.7302C91.8946 39.0154 88.9563 34.762 89.4895 37.1236C89.7107 38.1031 91.6321 38.4803 92.4393 38.0191C94.08 37.0815 87.2734 34.7624 91.2805 39.0199C93.2806 41.145 86.8612 35.1476 84.3274 33.6997C83.3416 33.1364 70.871 27.1259 70.5003 30.0915C70.3686 31.145 72.0562 34.0358 71.7645 33.015C71.4209 31.8122 67.5306 30.04 66.3654 30.5919C65.0168 31.2307 67.4346 32.8968 65.3909 30.9607C63.7445 29.4009 61.8904 28.9943 61.5193 31.6981C61.2511 33.6521 63.4011 34.3235 64.9958 34.2792C66.3378 34.2419 66.4785 32.124 64.4691 33.41C62.6567 34.5699 60.648 36.8774 60.0971 39.0199C59.7887 40.2191 59.3767 39.9823 59.0436 40.7318C58.4987 41.9577 58.076 43.2926 57.3843 44.4454C56.7292 45.5373 55.3382 46.6147 55.251 47.9219C55.1764 49.0409 55.8363 51.6559 54.9876 52.5046C54.1479 53.3443 56.3788 49.9206 56.6732 49.4495" stroke="black" stroke-width="2" stroke-linecap="round"/>
<path d="M99.3408 59.4049C100.464 58.282 102.265 57.9827 103.845 57.9827C106.119 57.9827 106.243 63.5714 105.872 65.0937C105.14 68.1066 102.612 71.7544 99.8149 73.153" stroke="black" stroke-width="2" stroke-linecap="round"/>
<path d="M51.9335 59.8787C50.4989 59.7193 48.8758 59.2144 48.615 61.3009C48.5298 61.9824 47.7111 62.4004 47.6668 63.1972C47.6189 64.0603 47.6668 64.9401 47.6668 65.8046C47.6668 68.4795 49.8685 68.954 50.5112 71.2038C50.9278 72.6616 52.852 73.0934 53.3557 74.1009" stroke="black" stroke-width="2" stroke-linecap="round"/>
<path d="M52.4072 59.4048C64.6155 59.4048 76.7168 58.4566 88.9107 58.4566C90.4983 58.4566 98.6513 57.5526 99.3403 58.9307" stroke="black" stroke-width="2" stroke-linecap="round"/>
<path d="M80.8524 62.2494C80.8524 65.9871 81.5168 68.6023 85.1191 70.2033C87.5317 71.2756 94.1475 72.2455 96.7075 70.7827C99.5809 69.1408 89.8175 71.4411 86.8047 70.0716C82.8404 68.2697 79.9043 66.1883 79.9043 61.3013" stroke="black" stroke-width="2" stroke-linecap="round"/>
<path d="M54.3037 70.3085C55.0979 70.3967 55.1996 71.1133 55.963 71.283C56.9938 71.512 57.7417 71.7307 58.8601 71.7307C61.7222 71.7307 65.3676 72.3816 67.7621 70.5192C71.0692 67.9469 70.8962 64.7893 70.8962 60.6427C70.8962 58.7808 71.9108 64.2865 71.8444 66.1472C71.7508 68.7672 69.188 70.3198 67.1036 71.362C65.7063 72.0606 56.3498 72.5044 55.7259 71.2566" stroke="black" stroke-width="2" stroke-linecap="round"/>
<path d="M71.3704 71.7307C71.2495 72.6986 70.5803 73.5873 70.9227 74.7858C71.0959 75.3919 74.1479 75.0492 74.689 75.0492" stroke="black" stroke-width="2" stroke-linecap="round"/>
<path d="M67.5781 87.8491H81.3262" stroke="black" stroke-width="2" stroke-linecap="round"/>
<path d="M65.6807 83.5825C66.7873 82.0455 68.1962 80.3497 68.051 83.1085C67.947 85.0849 70.4214 79.868 70.4214 82.6344C70.4214 84.8981 72.0326 79.9069 72.2913 80.5537C72.8898 82.0499 73.0211 81.1 74.214 82.1603C74.9989 82.858 74.9007 82.2619 75.6362 82.0023C76.1343 81.8265 76.079 83.072 76.1102 82.6344C76.2167 81.1442 76.9795 84.757 77.2954 84.1883C77.8022 83.2761 77.9227 78.9885 79.1917 81.9496C80.6846 85.433 79.9076 82.4748 82.2732 81.6862" stroke="black" stroke-width="2" stroke-linecap="round"/>
<path d="M59.9932 65.0938H61.4154" stroke="black" stroke-width="2" stroke-linecap="round"/>
<path d="M89.8593 64.6196C89.2396 64.6196 89.1618 64.5924 88.9111 65.0937" stroke="black" stroke-width="2" stroke-linecap="round"/>
<path d="M67.1035 82.6344C67.3802 82.3577 69.6688 79.7234 69.9479 81.2121C70.2133 82.6272 71.5363 80.4119 71.8442 80.027C72.1327 79.6663 76.0261 81.5168 76.1109 81.6862" stroke="black" stroke-width="2" stroke-linecap="round"/>
<path d="M72.3184 92.1157C73.0078 92.2019 72.5374 92.8894 73.0558 93.0375C73.5379 93.1753 74.1893 93.0639 74.6887 93.0639" stroke="black" stroke-width="2" stroke-linecap="round"/>
<path d="M62.3631 98.7527C62.3631 101.685 62.3631 104.617 62.3631 107.549C62.3631 109.465 61.9788 111.732 62.8372 113.449" stroke="black" stroke-width="2" stroke-linecap="round"/>
<path d="M85.5928 97.3306C86.1062 101.759 86.0668 106.157 86.0668 110.605" stroke="black" stroke-width="2" stroke-linecap="round"/>
<path d="M61.8887 110.131C62.6748 110.218 63.1902 110.972 63.864 111.342C66.9243 113.025 70.5727 113.273 73.9512 113.897C77.5807 114.567 82.4808 115.746 84.6441 112.501" stroke="black" stroke-width="2" stroke-linecap="round"/>
<path d="M60.941 105.39C59.1345 106.047 57.6874 108.406 55.9106 109.393C53.2467 110.873 50.2057 112.066 47.2983 112.975C45.1883 113.634 38.9384 114.788 38.1855 116.294" stroke="black" stroke-width="2" stroke-linecap="round"/>
<path d="M86.54 107.286C88.7961 108.154 90.6465 109.966 92.6503 111.289C96.5303 113.852 100.787 116.438 105.45 117.215C106.534 117.396 111.185 118.651 111.666 119.612" stroke="black" stroke-width="2" stroke-linecap="round"/>
<path d="M89.8594 64.6196C89.8594 65.2586 89.8594 64.3034 89.8594 64.1455" stroke="black" stroke-width="2" stroke-linecap="round"/>
<path d="M83.2227 55.1382C86.4074 55.1382 89.6283 55.6123 92.7041 55.6123" stroke="black" stroke-width="2" stroke-linecap="round"/>
<path d="M59.0449 56.5605C61.6234 56.5605 64.1297 56.0864 66.6301 56.0864" stroke="black" stroke-width="2" stroke-linecap="round"/>
<path d="M57.6221 111.553C58.7165 111.674 59.5216 113.449 60.0978 114.239C62.2678 117.217 65.1685 118.45 68.473 119.981C71.6798 121.466 73.6662 121.508 77.2697 121.508C82.7984 121.508 86.3807 116.61 90.8071 114.397" stroke="black" stroke-width="2" stroke-linecap="round"/>
<path d="M39.608 115.819C33.484 116.376 28.957 119.581 26.334 124.827" stroke="black" stroke-width="2" stroke-linecap="round"/>
<path d="M112.14 119.138C115.384 120.855 116.886 123.509 118.671 126.723C119.447 128.12 119.767 130.773 121.147 131.464" stroke="black" stroke-width="2" stroke-linecap="round"/>
</svg>
